<svg width="168" height="92" viewBox="0 0 168 92" fill="none" xmlns="http://www.w3.org/2000/svg">
<path d="M6 0.5H162C165.038 0.5 167.5 2.96243 167.5 6V86C167.5 89.0376 165.038 91.5 162 91.5H6C2.96243 91.5 0.5 89.0376 0.5 86V6C0.5 2.96243 2.96243 0.5 6 0.5Z" stroke="#F9F9F9"/>
<path d="M85 24H93V26H85V24ZM85 31H93V33H85V31ZM85 38H93V40H85V38ZM78.5 39C77.3954 39 76.5 38.1046 76.5 37C76.5 35.8954 77.3954 35 78.5 35C79.6046 35 80.5 35.8954 80.5 37C80.5 38.1046 79.6046 39 78.5 39ZM78.5 41C80.7091 41 82.5 39.2091 82.5 37C82.5 34.7909 80.7091 33 78.5 33C76.2909 33 74.5 34.7909 74.5 37C74.5 39.2091 76.2909 41 78.5 41ZM77 26V29H80V26H77ZM75 24H82V31H75V24Z" fill="#CE2C31"/>
<path d="M50.0449 61.1016L52.957 69.4004H53.0664L55.9922 61.1016H57.291L53.668 71H52.3691L48.7461 61.1016H50.0449ZM57.4141 68.8945C57.4141 67.1855 58.918 66.8027 60.2031 66.707C60.6748 66.6729 61.8779 66.6113 62.2129 66.5977V65.9961C62.2129 65.0527 61.6523 64.5059 60.5312 64.5059C59.5879 64.5059 59.0273 64.9434 58.8633 65.5039H57.6328C57.7832 64.3145 58.9453 63.4805 60.5859 63.4805C61.5566 63.4805 63.375 63.7676 63.375 66.1055V71H62.2129V69.9883H62.1582C61.9121 70.4941 61.2285 71.1777 59.9434 71.1777C58.5352 71.1777 57.4141 70.3438 57.4141 68.8945ZM58.5898 68.9492C58.5898 69.7285 59.2461 70.125 60.1484 70.125C61.4746 70.125 62.2129 69.2363 62.2129 68.3066V67.5547L60.3398 67.6914C59.2734 67.7598 58.5898 68.1426 58.5898 68.9492ZM66.4375 61.1016V71H65.2617V61.1016H66.4375ZM73 67.9512V63.5762H74.1621V71H73V69.7422H72.918C72.5625 70.4941 71.8379 71.0957 70.7168 71.0957C69.3086 71.0957 68.3105 70.1797 68.3105 68.293V63.5762H69.4863V68.2109C69.4863 69.2773 70.1562 69.9609 71.0996 69.9609C71.9336 69.9609 73 69.332 73 67.9512ZM79.166 71.1504C77.0195 71.1504 75.6934 69.6328 75.6934 67.3496C75.6934 65.0664 77.0332 63.4805 79.0566 63.4805C80.6152 63.4805 82.2559 64.4375 82.2559 67.1855V67.6777H76.8691C76.9238 69.25 77.8398 70.1113 79.166 70.1113C80.0547 70.1113 80.6152 69.7285 80.8887 69.2637H82.1465C81.791 70.3848 80.6973 71.1504 79.166 71.1504ZM76.8828 66.6797H81.0664C81.0664 65.4355 80.2734 64.5195 79.0566 64.5195C77.7715 64.5195 76.9512 65.5312 76.8828 66.6797ZM87.8887 71H86.6035L90.2266 61.1016H91.5254L95.1484 71H93.8496L92.8652 68.2109H88.8867L87.8887 71ZM89.2559 67.1309H92.4824L90.9102 62.7012H90.8281L89.2559 67.1309ZM99.127 71.1504C97.2812 71.1504 95.9688 69.6602 95.9688 67.3086C95.9688 64.957 97.2812 63.4805 99.1406 63.4805C100.576 63.4805 101.041 64.3555 101.287 64.752H101.369V61.1016H102.559V71H101.41V69.8652H101.287C101.027 70.2754 100.549 71.1504 99.127 71.1504ZM99.291 70.0977C100.645 70.0977 101.41 68.9492 101.41 67.2812C101.41 65.6406 100.672 64.5332 99.291 64.5332C97.8691 64.5332 97.1582 65.7363 97.1582 67.2812C97.1582 68.8672 97.8828 70.0977 99.291 70.0977ZM107.398 71.1504C105.553 71.1504 104.24 69.6602 104.24 67.3086C104.24 64.957 105.553 63.4805 107.412 63.4805C108.848 63.4805 109.312 64.3555 109.559 64.752H109.641V61.1016H110.83V71H109.682V69.8652H109.559C109.299 70.2754 108.82 71.1504 107.398 71.1504ZM107.562 70.0977C108.916 70.0977 109.682 68.9492 109.682 67.2812C109.682 65.6406 108.943 64.5332 107.562 64.5332C106.141 64.5332 105.43 65.7363 105.43 67.2812C105.43 68.8672 106.154 70.0977 107.562 70.0977ZM116.996 65.5039C116.832 64.8887 116.367 64.4785 115.492 64.4785C114.576 64.4785 113.92 64.9707 113.92 65.5996C113.92 66.0918 114.316 66.4336 115.191 66.6387L116.299 66.9121C117.625 67.2266 118.281 67.8828 118.281 68.9219C118.281 70.207 117.229 71.1504 115.369 71.1504C113.701 71.1504 112.703 70.4121 112.512 69.0586H113.742C113.879 69.7832 114.412 70.125 115.342 70.125C116.395 70.125 117.064 69.6875 117.064 68.9902C117.064 68.4707 116.695 68.1152 115.848 67.9238L114.727 67.6641C113.428 67.3633 112.744 66.6523 112.744 65.668C112.744 64.3965 113.852 63.4805 115.492 63.4805C117.023 63.4805 117.994 64.3008 118.145 65.5039H116.996Z" fill="#1C2024"/>
</svg>
