<svg width="168" height="92" viewBox="0 0 168 92" fill="none" xmlns="http://www.w3.org/2000/svg">
<path d="M6 0.5H162C165.038 0.5 167.5 2.96243 167.5 6V86C167.5 89.0376 165.038 91.5 162 91.5H6C2.96243 91.5 0.5 89.0376 0.5 86V6C0.5 2.96243 2.96243 0.5 6 0.5Z" stroke="#F9F9F9"/>
<path d="M83.9998 21L78 31H90L83.9998 21ZM83.9998 24.8873L86.4676 29H81.5323L83.9998 24.8873ZM78.75 40C77.2312 40 76 38.7688 76 37.25C76 35.7312 77.2312 34.5 78.75 34.5C80.2688 34.5 81.5 35.7312 81.5 37.25C81.5 38.7688 80.2688 40 78.75 40ZM78.75 42C81.3733 42 83.5 39.8734 83.5 37.25C83.5 34.6266 81.3733 32.5 78.75 32.5C76.1267 32.5 74 34.6266 74 37.25C74 39.8734 76.1267 42 78.75 42ZM87 35.5V39.5H91V35.5H87ZM85 41.5V33.5H93V41.5H85Z" fill="#3E9B4F"/>
<path d="M65.5938 71V61.1016H66.8242V69.9062H71.418V71H65.5938ZM75.9434 71.1504C73.9199 71.1504 72.5527 69.6328 72.5527 67.3223C72.5527 65.0117 73.9199 63.4805 75.9434 63.4805C77.9531 63.4805 79.3066 65.0117 79.3066 67.3223C79.3066 69.6328 77.9531 71.1504 75.9434 71.1504ZM75.9434 70.1113C77.4336 70.1113 78.1309 68.7988 78.1309 67.3223C78.1309 65.8457 77.4336 64.5195 75.9434 64.5195C74.4258 64.5195 73.7285 65.8457 73.7285 67.3223C73.7285 68.7988 74.4258 70.1113 75.9434 70.1113ZM83.8594 73.9395C82.0684 73.9395 80.8516 73.1602 80.7148 71.7793H81.9453C82.1094 72.5312 82.8066 72.9141 83.8594 72.9141C85.1309 72.9141 85.9102 72.3672 85.9102 71.1367V69.6328H85.8145C85.5684 70.043 85.0898 70.8906 83.6543 70.8906C81.8496 70.8906 80.4961 69.5234 80.4961 67.1855C80.4961 64.9023 81.8086 63.4805 83.668 63.4805C85.1035 63.4805 85.5684 64.3555 85.8418 64.752H85.9375V63.5762H87.0859V71.2051C87.0859 73.1191 85.6641 73.9395 83.8594 73.9395ZM83.8184 69.8379C85.1719 69.8379 85.9375 68.8672 85.9375 67.2266C85.9375 65.6406 85.1992 64.5332 83.8184 64.5332C82.3965 64.5332 81.6855 65.7363 81.6855 67.2266C81.6855 68.7715 82.4102 69.8379 83.8184 69.8379ZM91.9941 71.1504C89.9707 71.1504 88.6035 69.6328 88.6035 67.3223C88.6035 65.0117 89.9707 63.4805 91.9941 63.4805C94.0039 63.4805 95.3574 65.0117 95.3574 67.3223C95.3574 69.6328 94.0039 71.1504 91.9941 71.1504ZM91.9941 70.1113C93.4844 70.1113 94.1816 68.7988 94.1816 67.3223C94.1816 65.8457 93.4844 64.5195 91.9941 64.5195C90.4766 64.5195 89.7793 65.8457 89.7793 67.3223C89.7793 68.7988 90.4766 70.1113 91.9941 70.1113ZM101.031 65.5039C100.867 64.8887 100.402 64.4785 99.5273 64.4785C98.6113 64.4785 97.9551 64.9707 97.9551 65.5996C97.9551 66.0918 98.3516 66.4336 99.2266 66.6387L100.334 66.9121C101.66 67.2266 102.316 67.8828 102.316 68.9219C102.316 70.207 101.264 71.1504 99.4043 71.1504C97.7363 71.1504 96.7383 70.4121 96.5469 69.0586H97.7773C97.9141 69.7832 98.4473 70.125 99.377 70.125C100.43 70.125 101.1 69.6875 101.1 68.9902C101.1 68.4707 100.73 68.1152 99.8828 67.9238L98.7617 67.6641C97.4629 67.3633 96.7793 66.6523 96.7793 65.668C96.7793 64.3965 97.8867 63.4805 99.5273 63.4805C101.059 63.4805 102.029 64.3008 102.18 65.5039H101.031Z" fill="#1C2024"/>
</svg>
