<svg width="168" height="92" viewBox="0 0 168 92" fill="none" xmlns="http://www.w3.org/2000/svg">
<path d="M6 0.5H162C165.038 0.5 167.5 2.96243 167.5 6V86C167.5 89.0376 165.038 91.5 162 91.5H6C2.96243 91.5 0.5 89.0376 0.5 86V6C0.5 2.96243 2.96243 0.5 6 0.5Z" stroke="#F9F9F9"/>
<path d="M94.8 35.6V39.2H98.4V41.6H94.8V45.2H92.4V41.6H88.8V39.2H92.4V35.6H94.8ZM94.8096 21.2C95.4672 21.2 96 21.734 96 22.3916V33.2H93.6V23.6H74.4V40.3988L86.4 28.4L90 32V35.3948L86.4 31.7948L77.7924 40.4H86.4V42.8H73.1904C72.8746 42.7997 72.5718 42.674 72.3486 42.4506C72.1254 42.2271 72 41.9242 72 41.6084V22.3916C72.0022 22.0765 72.1283 21.7748 72.351 21.5519C72.5738 21.3289 72.8753 21.2025 73.1904 21.2H94.8096ZM79.2 26C79.8365 26 80.447 26.2529 80.8971 26.703C81.3471 27.153 81.6 27.7635 81.6 28.4C81.6 29.0365 81.3471 29.647 80.8971 30.0971C80.447 30.5472 79.8365 30.8 79.2 30.8C78.5635 30.8 77.953 30.5472 77.5029 30.0971C77.0529 29.647 76.8 29.0365 76.8 28.4C76.8 27.7635 77.0529 27.153 77.5029 26.703C77.953 26.2529 78.5635 26 79.2 26V26Z" fill="#2F64EE"/>
<path d="M37.8242 61.1016V71H36.5938V61.1016H37.8242ZM39.8613 71V63.5762H40.9961V64.7383H41.0918C41.4062 63.9453 42.1172 63.4805 43.0879 63.4805C44.0586 63.4805 44.7148 63.9453 45.0703 64.7383H45.1523C45.5352 63.9727 46.3145 63.4805 47.3809 63.4805C48.707 63.4805 49.6504 64.2871 49.6504 66.0371V71H48.4746V66.0508C48.4746 64.957 47.7773 64.5332 46.9707 64.5332C45.9316 64.5332 45.3438 65.2305 45.3438 66.1738V71H44.1543V65.9277C44.1543 65.0938 43.5527 64.5332 42.7051 64.5332C41.8164 64.5332 41.0371 65.2852 41.0371 66.3652V71H39.8613ZM51.1816 68.8945C51.1816 67.1855 52.6855 66.8027 53.9707 66.707C54.4424 66.6729 55.6455 66.6113 55.9805 66.5977V65.9961C55.9805 65.0527 55.4199 64.5059 54.2988 64.5059C53.3555 64.5059 52.7949 64.9434 52.6309 65.5039H51.4004C51.5508 64.3145 52.7129 63.4805 54.3535 63.4805C55.3242 63.4805 57.1426 63.7676 57.1426 66.1055V71H55.9805V69.9883H55.9258C55.6797 70.4941 54.9961 71.1777 53.7109 71.1777C52.3027 71.1777 51.1816 70.3438 51.1816 68.8945ZM52.3574 68.9492C52.3574 69.7285 53.0137 70.125 53.916 70.125C55.2422 70.125 55.9805 69.2363 55.9805 68.3066V67.5547L54.1074 67.6914C53.041 67.7598 52.3574 68.1426 52.3574 68.9492ZM62.0371 73.9395C60.2461 73.9395 59.0293 73.1602 58.8926 71.7793H60.123C60.2871 72.5312 60.9844 72.9141 62.0371 72.9141C63.3086 72.9141 64.0879 72.3672 64.0879 71.1367V69.6328H63.9922C63.7461 70.043 63.2676 70.8906 61.832 70.8906C60.0273 70.8906 58.6738 69.5234 58.6738 67.1855C58.6738 64.9023 59.9863 63.4805 61.8457 63.4805C63.2812 63.4805 63.7461 64.3555 64.0195 64.752H64.1152V63.5762H65.2637V71.2051C65.2637 73.1191 63.8418 73.9395 62.0371 73.9395ZM61.9961 69.8379C63.3496 69.8379 64.1152 68.8672 64.1152 67.2266C64.1152 65.6406 63.377 64.5332 61.9961 64.5332C60.5742 64.5332 59.8633 65.7363 59.8633 67.2266C59.8633 68.7715 60.5879 69.8379 61.9961 69.8379ZM70.2539 71.1504C68.1074 71.1504 66.7812 69.6328 66.7812 67.3496C66.7812 65.0664 68.1211 63.4805 70.1445 63.4805C71.7031 63.4805 73.3438 64.4375 73.3438 67.1855V67.6777H67.957C68.0117 69.25 68.9277 70.1113 70.2539 70.1113C71.1426 70.1113 71.7031 69.7285 71.9766 69.2637H73.2344C72.8789 70.3848 71.7852 71.1504 70.2539 71.1504ZM67.9707 66.6797H72.1543C72.1543 65.4355 71.3613 64.5195 70.1445 64.5195C68.8594 64.5195 68.0391 65.5312 67.9707 66.6797ZM85.293 64.2188C85.0059 62.8516 83.8301 62.1133 82.5312 62.1133C80.7402 62.1133 79.3457 63.4941 79.3457 66.0508C79.3457 68.6074 80.7402 69.9883 82.5312 69.9883C83.8301 69.9883 84.9922 69.25 85.293 67.8965H86.5234C86.168 69.9199 84.541 71.1367 82.5312 71.1367C79.9883 71.1367 78.1562 69.1816 78.1562 66.0508C78.1562 62.9199 79.9883 60.9648 82.5312 60.9648C84.5273 60.9648 86.1543 62.168 86.5234 64.2188H85.293ZM87.7402 68.8945C87.7402 67.1855 89.2441 66.8027 90.5293 66.707C91.001 66.6729 92.2041 66.6113 92.5391 66.5977V65.9961C92.5391 65.0527 91.9785 64.5059 90.8574 64.5059C89.9141 64.5059 89.3535 64.9434 89.1895 65.5039H87.959C88.1094 64.3145 89.2715 63.4805 90.9121 63.4805C91.8828 63.4805 93.7012 63.7676 93.7012 66.1055V71H92.5391V69.9883H92.4844C92.2383 70.4941 91.5547 71.1777 90.2695 71.1777C88.8613 71.1777 87.7402 70.3438 87.7402 68.8945ZM88.916 68.9492C88.916 69.7285 89.5723 70.125 90.4746 70.125C91.8008 70.125 92.5391 69.2363 92.5391 68.3066V67.5547L90.666 67.6914C89.5996 67.7598 88.916 68.1426 88.916 68.9492ZM95.5879 71V63.5762H96.7227V64.7109H96.8047C97.0781 63.959 97.8438 63.4531 98.7188 63.4531C98.8965 63.4531 99.1973 63.4668 99.334 63.4805V64.6699C99.252 64.6426 98.9238 64.5879 98.623 64.5879C97.5566 64.5879 96.7637 65.3262 96.7637 66.3242V71H95.5879ZM103.271 71.1504C101.248 71.1504 99.8809 69.6328 99.8809 67.3223C99.8809 65.0117 101.248 63.4805 103.271 63.4805C105.281 63.4805 106.635 65.0117 106.635 67.3223C106.635 69.6328 105.281 71.1504 103.271 71.1504ZM103.271 70.1113C104.762 70.1113 105.459 68.7988 105.459 67.3223C105.459 65.8457 104.762 64.5195 103.271 64.5195C101.754 64.5195 101.057 65.8457 101.057 67.3223C101.057 68.7988 101.754 70.1113 103.271 70.1113ZM112.869 67.9512V63.5762H114.031V71H112.869V69.7422H112.787C112.432 70.4941 111.707 71.0957 110.586 71.0957C109.178 71.0957 108.18 70.1797 108.18 68.293V63.5762H109.355V68.2109C109.355 69.2773 110.025 69.9609 110.969 69.9609C111.803 69.9609 112.869 69.332 112.869 67.9512ZM120.047 65.5039C119.883 64.8887 119.418 64.4785 118.543 64.4785C117.627 64.4785 116.971 64.9707 116.971 65.5996C116.971 66.0918 117.367 66.4336 118.242 66.6387L119.35 66.9121C120.676 67.2266 121.332 67.8828 121.332 68.9219C121.332 70.207 120.279 71.1504 118.42 71.1504C116.752 71.1504 115.754 70.4121 115.562 69.0586H116.793C116.93 69.7832 117.463 70.125 118.393 70.125C119.445 70.125 120.115 69.6875 120.115 68.9902C120.115 68.4707 119.746 68.1152 118.898 67.9238L117.777 67.6641C116.479 67.3633 115.795 66.6523 115.795 65.668C115.795 64.3965 116.902 63.4805 118.543 63.4805C120.074 63.4805 121.045 64.3008 121.195 65.5039H120.047ZM122.508 68.8945C122.508 67.1855 124.012 66.8027 125.297 66.707C125.769 66.6729 126.972 66.6113 127.307 66.5977V65.9961C127.307 65.0527 126.746 64.5059 125.625 64.5059C124.682 64.5059 124.121 64.9434 123.957 65.5039H122.727C122.877 64.3145 124.039 63.4805 125.68 63.4805C126.65 63.4805 128.469 63.7676 128.469 66.1055V71H127.307V69.9883H127.252C127.006 70.4941 126.322 71.1777 125.037 71.1777C123.629 71.1777 122.508 70.3438 122.508 68.8945ZM123.684 68.9492C123.684 69.7285 124.34 70.125 125.242 70.125C126.568 70.125 127.307 69.2363 127.307 68.3066V67.5547L125.434 67.6914C124.367 67.7598 123.684 68.1426 123.684 68.9492ZM131.531 61.1016V71H130.355V61.1016H131.531Z" fill="#1C2024"/>
</svg>
