<svg width="168" height="92" viewBox="0 0 168 92" fill="none" xmlns="http://www.w3.org/2000/svg">
<path d="M6 0.5H162C165.038 0.5 167.5 2.96243 167.5 6V86C167.5 89.0376 165.038 91.5 162 91.5H6C2.96243 91.5 0.5 89.0376 0.5 86V6C0.5 2.96243 2.96243 0.5 6 0.5Z" stroke="#F9F9F9"/>
<path d="M92.9005 25.6148C94.1365 26.9276 94.8001 28.4 94.8001 30.7868C94.8001 34.9868 91.8517 38.7512 87.5641 40.6124L86.4925 38.9588C90.4945 36.794 91.2769 33.9848 91.5889 32.2136C90.9445 32.5472 90.1009 32.6636 89.2741 32.5868C87.1093 32.3864 85.4029 30.6092 85.4029 28.4C85.4029 27.2861 85.8454 26.2178 86.633 25.4302C87.4207 24.6425 88.4889 24.2 89.6029 24.2C90.8905 24.2 92.1217 24.788 92.9005 25.6148ZM80.9005 25.6148C82.1365 26.9276 82.8001 28.4 82.8001 30.7868C82.8001 34.9868 79.8517 38.7512 75.5641 40.6124L74.4925 38.9588C78.4945 36.794 79.2769 33.9848 79.5889 32.2136C78.9445 32.5472 78.1009 32.6636 77.2741 32.5868C75.1093 32.3864 73.4041 30.6092 73.4041 28.4C73.4041 27.2861 73.8466 26.2178 74.6342 25.4302C75.4219 24.6425 76.4901 24.2 77.6041 24.2C78.8917 24.2 80.1229 24.788 80.9017 25.6148H80.9005Z" fill="#007763" fill-opacity="0.992157"/>
<path d="M45.5469 62.1953V61.1016H53.0117V62.1953H49.9082V71H48.6641V62.1953H45.5469ZM56.5391 71.1504C54.3926 71.1504 53.0664 69.6328 53.0664 67.3496C53.0664 65.0664 54.4062 63.4805 56.4297 63.4805C57.9883 63.4805 59.6289 64.4375 59.6289 67.1855V67.6777H54.2422C54.2969 69.25 55.2129 70.1113 56.5391 70.1113C57.4277 70.1113 57.9883 69.7285 58.2617 69.2637H59.5195C59.1641 70.3848 58.0703 71.1504 56.5391 71.1504ZM54.2559 66.6797H58.4395C58.4395 65.4355 57.6465 64.5195 56.4297 64.5195C55.1445 64.5195 54.3242 65.5312 54.2559 66.6797ZM65.2891 65.5039C65.125 64.8887 64.6602 64.4785 63.7852 64.4785C62.8691 64.4785 62.2129 64.9707 62.2129 65.5996C62.2129 66.0918 62.6094 66.4336 63.4844 66.6387L64.5918 66.9121C65.918 67.2266 66.5742 67.8828 66.5742 68.9219C66.5742 70.207 65.5215 71.1504 63.6621 71.1504C61.9941 71.1504 60.9961 70.4121 60.8047 69.0586H62.0352C62.1719 69.7832 62.7051 70.125 63.6348 70.125C64.6875 70.125 65.3574 69.6875 65.3574 68.9902C65.3574 68.4707 64.9883 68.1152 64.1406 67.9238L63.0195 67.6641C61.7207 67.3633 61.0371 66.6523 61.0371 65.668C61.0371 64.3965 62.1445 63.4805 63.7852 63.4805C65.3164 63.4805 66.2871 64.3008 66.4375 65.5039H65.2891ZM71.3457 63.5762V64.5605H69.7871V68.8672C69.7871 69.8242 70.252 69.9746 70.7578 69.9746C70.9766 69.9746 71.2773 69.9609 71.4551 69.9473V71.041C71.2773 71.0684 70.9766 71.0957 70.6348 71.0957C69.6504 71.0957 68.5977 70.4805 68.5977 69.168V64.5605H67.4766V63.5762H68.5977V61.7988H69.7871V63.5762H71.3457ZM72.8633 71V63.5762H74.0391V71H72.8633ZM73.4512 62.3457C73 62.3457 72.6309 62.0039 72.6309 61.5664C72.6309 61.1289 73 60.7871 73.4512 60.7871C73.9023 60.7871 74.2852 61.1289 74.2852 61.5664C74.2852 62.0039 73.9023 62.3457 73.4512 62.3457ZM75.9121 71V63.5762H77.0469V64.7383H77.1426C77.457 63.9453 78.168 63.4805 79.1387 63.4805C80.1094 63.4805 80.7656 63.9453 81.1211 64.7383H81.2031C81.5859 63.9727 82.3652 63.4805 83.4316 63.4805C84.7578 63.4805 85.7012 64.2871 85.7012 66.0371V71H84.5254V66.0508C84.5254 64.957 83.8281 64.5332 83.0215 64.5332C81.9824 64.5332 81.3945 65.2305 81.3945 66.1738V71H80.2051V65.9277C80.2051 65.0938 79.6035 64.5332 78.7559 64.5332C77.8672 64.5332 77.0879 65.2852 77.0879 66.3652V71H75.9121ZM90.623 71.1504C88.5996 71.1504 87.2324 69.6328 87.2324 67.3223C87.2324 65.0117 88.5996 63.4805 90.623 63.4805C92.6328 63.4805 93.9863 65.0117 93.9863 67.3223C93.9863 69.6328 92.6328 71.1504 90.623 71.1504ZM90.623 70.1113C92.1133 70.1113 92.8105 68.7988 92.8105 67.3223C92.8105 65.8457 92.1133 64.5195 90.623 64.5195C89.1055 64.5195 88.4082 65.8457 88.4082 67.3223C88.4082 68.7988 89.1055 70.1113 90.623 70.1113ZM96.707 66.543V71H95.5312V63.5762H96.666V64.7383H96.7617C97.1172 63.9863 97.8008 63.4805 98.9355 63.4805C100.439 63.4805 101.438 64.3965 101.438 66.2832V71H100.262V66.3652C100.262 65.2168 99.6328 64.5332 98.5801 64.5332C97.5 64.5332 96.707 65.2578 96.707 66.543ZM103.324 71V63.5762H104.5V71H103.324ZM103.912 62.3457C103.461 62.3457 103.092 62.0039 103.092 61.5664C103.092 61.1289 103.461 60.7871 103.912 60.7871C104.363 60.7871 104.746 61.1289 104.746 61.5664C104.746 62.0039 104.363 62.3457 103.912 62.3457ZM106.018 68.8945C106.018 67.1855 107.521 66.8027 108.807 66.707C109.278 66.6729 110.481 66.6113 110.816 66.5977V65.9961C110.816 65.0527 110.256 64.5059 109.135 64.5059C108.191 64.5059 107.631 64.9434 107.467 65.5039H106.236C106.387 64.3145 107.549 63.4805 109.189 63.4805C110.16 63.4805 111.979 63.7676 111.979 66.1055V71H110.816V69.9883H110.762C110.516 70.4941 109.832 71.1777 108.547 71.1777C107.139 71.1777 106.018 70.3438 106.018 68.8945ZM107.193 68.9492C107.193 69.7285 107.85 70.125 108.752 70.125C110.078 70.125 110.816 69.2363 110.816 68.3066V67.5547L108.943 67.6914C107.877 67.7598 107.193 68.1426 107.193 68.9492ZM115.041 61.1016V71H113.865V61.1016H115.041ZM121.043 65.5039C120.879 64.8887 120.414 64.4785 119.539 64.4785C118.623 64.4785 117.967 64.9707 117.967 65.5996C117.967 66.0918 118.363 66.4336 119.238 66.6387L120.346 66.9121C121.672 67.2266 122.328 67.8828 122.328 68.9219C122.328 70.207 121.275 71.1504 119.416 71.1504C117.748 71.1504 116.75 70.4121 116.559 69.0586H117.789C117.926 69.7832 118.459 70.125 119.389 70.125C120.441 70.125 121.111 69.6875 121.111 68.9902C121.111 68.4707 120.742 68.1152 119.895 67.9238L118.773 67.6641C117.475 67.3633 116.791 66.6523 116.791 65.668C116.791 64.3965 117.898 63.4805 119.539 63.4805C121.07 63.4805 122.041 64.3008 122.191 65.5039H121.043Z" fill="#1C2024"/>
</svg>
