<svg width="168" height="92" viewBox="0 0 168 92" fill="none" xmlns="http://www.w3.org/2000/svg">
<path d="M6 0.5H162C165.038 0.5 167.5 2.96243 167.5 6V86C167.5 89.0376 165.038 91.5 162 91.5H6C2.96243 91.5 0.5 89.0376 0.5 86V6C0.5 2.96243 2.96243 0.5 6 0.5Z" stroke="#F9F9F9"/>
<path d="M75 24H93C93.5523 24 94 24.4477 94 25V39C94 39.5523 93.5523 40 93 40H75C74.4477 40 74 39.5523 74 39V25C74 24.4477 74.4477 24 75 24ZM76 26V38H92V26H76Z" fill="#0588F0"/>
<path d="M55.4551 61.1016V71H54.2793L48.9199 63.2891H48.8242V71H47.5938V61.1016H48.7832L54.1426 68.8262H54.2383V61.1016H55.4551ZM60.6094 71.1504C58.4629 71.1504 57.1367 69.6328 57.1367 67.3496C57.1367 65.0664 58.4766 63.4805 60.5 63.4805C62.0586 63.4805 63.6992 64.4375 63.6992 67.1855V67.6777H58.3125C58.3672 69.25 59.2832 70.1113 60.6094 70.1113C61.498 70.1113 62.0586 69.7285 62.332 69.2637H63.5898C63.2344 70.3848 62.1406 71.1504 60.6094 71.1504ZM58.3262 66.6797H62.5098C62.5098 65.4355 61.7168 64.5195 60.5 64.5195C59.2148 64.5195 58.3945 65.5312 58.3262 66.6797ZM65.9277 63.5762L67.6777 66.5977L69.4414 63.5762H70.7949L68.4023 67.2812L70.7949 71H69.4551L67.6777 68.1289L65.9277 71H64.5742L66.9121 67.2812L64.5742 63.5762H65.9277ZM75.457 63.5762V64.5605H73.8984V68.8672C73.8984 69.8242 74.3633 69.9746 74.8691 69.9746C75.0879 69.9746 75.3887 69.9609 75.5664 69.9473V71.041C75.3887 71.0684 75.0879 71.0957 74.7461 71.0957C73.7617 71.0957 72.709 70.4805 72.709 69.168V64.5605H71.5879V63.5762H72.709V61.7988H73.8984V63.5762H75.457ZM80.6387 71V61.1016H84.1113C86.1895 61.1016 87.1602 62.2637 87.1602 63.7266C87.1602 64.998 86.4082 65.5723 85.5469 65.8047V65.9004C86.4629 65.9551 87.5566 66.8027 87.5566 68.375C87.5566 69.8652 86.5723 71 84.2344 71H80.6387ZM84.2207 69.9062C85.7656 69.9062 86.3672 69.2227 86.3672 68.3613C86.3672 67.3496 85.5605 66.502 84.2891 66.502H81.8691V69.9062H84.2207ZM84.0703 65.4355C85.1367 65.4355 85.9844 64.7793 85.9844 63.7402C85.9844 62.8789 85.4102 62.1953 84.1113 62.1953H81.8691V65.4355H84.0703ZM93.8457 67.9512V63.5762H95.0078V71H93.8457V69.7422H93.7637C93.4082 70.4941 92.6836 71.0957 91.5625 71.0957C90.1543 71.0957 89.1562 70.1797 89.1562 68.293V63.5762H90.332V68.2109C90.332 69.2773 91.002 69.9609 91.9453 69.9609C92.7793 69.9609 93.8457 69.332 93.8457 67.9512ZM100.135 63.5762V64.5605H98.5762V68.8672C98.5762 69.8242 99.041 69.9746 99.5469 69.9746C99.7656 69.9746 100.066 69.9609 100.244 69.9473V71.041C100.066 71.0684 99.7656 71.0957 99.4238 71.0957C98.4395 71.0957 97.3867 70.4805 97.3867 69.168V64.5605H96.2656V63.5762H97.3867V61.7988H98.5762V63.5762H100.135ZM104.893 63.5762V64.5605H103.334V68.8672C103.334 69.8242 103.799 69.9746 104.305 69.9746C104.523 69.9746 104.824 69.9609 105.002 69.9473V71.041C104.824 71.0684 104.523 71.0957 104.182 71.0957C103.197 71.0957 102.145 70.4805 102.145 69.168V64.5605H101.023V63.5762H102.145V61.7988H103.334V63.5762H104.893ZM109.363 71.1504C107.34 71.1504 105.973 69.6328 105.973 67.3223C105.973 65.0117 107.34 63.4805 109.363 63.4805C111.373 63.4805 112.727 65.0117 112.727 67.3223C112.727 69.6328 111.373 71.1504 109.363 71.1504ZM109.363 70.1113C110.854 70.1113 111.551 68.7988 111.551 67.3223C111.551 65.8457 110.854 64.5195 109.363 64.5195C107.846 64.5195 107.148 65.8457 107.148 67.3223C107.148 68.7988 107.846 70.1113 109.363 70.1113ZM115.447 66.543V71H114.271V63.5762H115.406V64.7383H115.502C115.857 63.9863 116.541 63.4805 117.676 63.4805C119.18 63.4805 120.178 64.3965 120.178 66.2832V71H119.002V66.3652C119.002 65.2168 118.373 64.5332 117.32 64.5332C116.24 64.5332 115.447 65.2578 115.447 66.543Z" fill="#1C2024"/>
</svg>
