<svg width="168" height="92" viewBox="0 0 168 92" fill="none" xmlns="http://www.w3.org/2000/svg">
<path d="M6 0.5H162C165.038 0.5 167.5 2.96243 167.5 6V86C167.5 89.0376 165.038 91.5 162 91.5H6C2.96243 91.5 0.5 89.0376 0.5 86V6C0.5 2.96243 2.96243 0.5 6 0.5Z" stroke="#F9F9F9"/>
<path d="M75.3936 42.8L75.3696 42.824L75.3444 42.8H73.1904C72.8746 42.7997 72.5718 42.674 72.3486 42.4506C72.1254 42.2271 72 41.9242 72 41.6084V22.3916C72.0022 22.0765 72.1283 21.7748 72.351 21.5519C72.5738 21.3289 72.8753 21.2025 73.1904 21.2H94.8096C95.4672 21.2 96 21.734 96 22.3916V41.6084C95.9978 41.9236 95.8717 42.2252 95.649 42.4482C95.4263 42.6711 95.1247 42.7975 94.8096 42.8H75.3936V42.8ZM93.6 35.6V23.6H74.4V40.4L86.4 28.4L93.6 35.6ZM93.6 38.9936L86.4 31.7936L77.7936 40.4H93.6V38.9936ZM79.2 30.8C78.5635 30.8 77.953 30.5472 77.5029 30.0971C77.0529 29.647 76.8 29.0365 76.8 28.4C76.8 27.7635 77.0529 27.153 77.5029 26.703C77.953 26.2529 78.5635 26 79.2 26C79.8365 26 80.447 26.2529 80.8971 26.703C81.3471 27.153 81.6 27.7635 81.6 28.4C81.6 29.0365 81.3471 29.647 80.8971 30.0971C80.447 30.5472 79.8365 30.8 79.2 30.8Z" fill="#0090FF"/>
<path d="M66.8242 61.1016V71H65.5938V61.1016H66.8242ZM68.8613 71V63.5762H69.9961V64.7383H70.0918C70.4062 63.9453 71.1172 63.4805 72.0879 63.4805C73.0586 63.4805 73.7148 63.9453 74.0703 64.7383H74.1523C74.5352 63.9727 75.3145 63.4805 76.3809 63.4805C77.707 63.4805 78.6504 64.2871 78.6504 66.0371V71H77.4746V66.0508C77.4746 64.957 76.7773 64.5332 75.9707 64.5332C74.9316 64.5332 74.3438 65.2305 74.3438 66.1738V71H73.1543V65.9277C73.1543 65.0938 72.5527 64.5332 71.7051 64.5332C70.8164 64.5332 70.0371 65.2852 70.0371 66.3652V71H68.8613ZM80.1816 68.8945C80.1816 67.1855 81.6855 66.8027 82.9707 66.707C83.4424 66.6729 84.6455 66.6113 84.9805 66.5977V65.9961C84.9805 65.0527 84.4199 64.5059 83.2988 64.5059C82.3555 64.5059 81.7949 64.9434 81.6309 65.5039H80.4004C80.5508 64.3145 81.7129 63.4805 83.3535 63.4805C84.3242 63.4805 86.1426 63.7676 86.1426 66.1055V71H84.9805V69.9883H84.9258C84.6797 70.4941 83.9961 71.1777 82.7109 71.1777C81.3027 71.1777 80.1816 70.3438 80.1816 68.8945ZM81.3574 68.9492C81.3574 69.7285 82.0137 70.125 82.916 70.125C84.2422 70.125 84.9805 69.2363 84.9805 68.3066V67.5547L83.1074 67.6914C82.041 67.7598 81.3574 68.1426 81.3574 68.9492ZM91.0371 73.9395C89.2461 73.9395 88.0293 73.1602 87.8926 71.7793H89.123C89.2871 72.5312 89.9844 72.9141 91.0371 72.9141C92.3086 72.9141 93.0879 72.3672 93.0879 71.1367V69.6328H92.9922C92.7461 70.043 92.2676 70.8906 90.832 70.8906C89.0273 70.8906 87.6738 69.5234 87.6738 67.1855C87.6738 64.9023 88.9863 63.4805 90.8457 63.4805C92.2812 63.4805 92.7461 64.3555 93.0195 64.752H93.1152V63.5762H94.2637V71.2051C94.2637 73.1191 92.8418 73.9395 91.0371 73.9395ZM90.9961 69.8379C92.3496 69.8379 93.1152 68.8672 93.1152 67.2266C93.1152 65.6406 92.377 64.5332 90.9961 64.5332C89.5742 64.5332 88.8633 65.7363 88.8633 67.2266C88.8633 68.7715 89.5879 69.8379 90.9961 69.8379ZM99.2539 71.1504C97.1074 71.1504 95.7812 69.6328 95.7812 67.3496C95.7812 65.0664 97.1211 63.4805 99.1445 63.4805C100.703 63.4805 102.344 64.4375 102.344 67.1855V67.6777H96.957C97.0117 69.25 97.9277 70.1113 99.2539 70.1113C100.143 70.1113 100.703 69.7285 100.977 69.2637H102.234C101.879 70.3848 100.785 71.1504 99.2539 71.1504ZM96.9707 66.6797H101.154C101.154 65.4355 100.361 64.5195 99.1445 64.5195C97.8594 64.5195 97.0391 65.5312 96.9707 66.6797Z" fill="#1C2024"/>
</svg>
