<svg width="168" height="92" viewBox="0 0 168 92" fill="none" xmlns="http://www.w3.org/2000/svg">
<path d="M6 0.5H162C165.038 0.5 167.5 2.96243 167.5 6V86C167.5 89.0376 165.038 91.5 162 91.5H6C2.96243 91.5 0.5 89.0376 0.5 86V6C0.5 2.96243 2.96243 0.5 6 0.5Z" stroke="#F9F9F9"/>
<path d="M84 44C77.3724 44 72 38.6276 72 32C72 25.3724 77.3724 20 84 20C90.6276 20 96 25.3724 96 32C96 38.6276 90.6276 44 84 44ZM84 41.6C86.5461 41.6 88.9879 40.5886 90.7882 38.7882C92.5886 36.9879 93.6 34.5461 93.6 32C93.6 29.4539 92.5886 27.0121 90.7882 25.2118C88.9879 23.4114 86.5461 22.4 84 22.4C81.4539 22.4 79.0121 23.4114 77.2118 25.2118C75.4114 27.0121 74.4 29.4539 74.4 32C74.4 34.5461 75.4114 36.9879 77.2118 38.7882C79.0121 40.5886 81.4539 41.6 84 41.6V41.6ZM82.8 35.6H85.2V38H82.8V35.6ZM85.2 33.626V34.4H82.8V32.6C82.8 32.2817 82.9264 31.9765 83.1515 31.7515C83.3765 31.5264 83.6817 31.4 84 31.4C84.3409 31.4 84.6748 31.3032 84.9628 31.1208C85.2508 30.9384 85.4811 30.678 85.6269 30.3699C85.7727 30.0618 85.828 29.7186 85.7864 29.3802C85.7448 29.0419 85.6079 28.7223 85.3918 28.4587C85.1757 28.1951 84.8891 27.9983 84.5655 27.8912C84.2418 27.7841 83.8944 27.771 83.5637 27.8536C83.233 27.9363 82.9325 28.1111 82.6972 28.3578C82.462 28.6045 82.3016 28.9129 82.2348 29.2472L79.8804 28.7756C80.0264 28.0461 80.3634 27.3684 80.8571 26.8119C81.3508 26.2554 81.9834 25.8399 82.6903 25.608C83.3972 25.3761 84.153 25.336 84.8804 25.4919C85.6079 25.6479 86.2808 25.9941 86.8306 26.4954C87.3803 26.9966 87.7871 27.6349 88.0093 28.3449C88.2316 29.0549 88.2613 29.8111 88.0954 30.5364C87.9296 31.2616 87.5741 31.9298 87.0654 32.4726C86.5567 33.0155 85.913 33.4135 85.2 33.626V33.626Z" fill="#DF3478"/>
<path d="M68.5938 71V61.1016H74.5547V62.1953H69.8242V65.5039H74.1035V66.584H69.8242V71H68.5938ZM75.5801 71H74.2949L77.918 61.1016H79.2168L82.8398 71H81.541L80.5566 68.2109H76.5781L75.5801 71ZM76.9473 67.1309H80.1738L78.6016 62.7012H78.5195L76.9473 67.1309ZM87.2969 67.8965H88.6367L89.6895 69.2637C90.4277 68.6211 90.8926 67.5342 90.8926 66.0508C90.8926 63.4941 89.498 62.1133 87.707 62.1133C85.916 62.1133 84.5215 63.4941 84.5215 66.0508C84.5215 68.6074 85.916 69.9883 87.707 69.9883C88.0762 69.9883 88.4316 69.9268 88.7598 69.8105L87.2969 67.8965ZM92.082 66.0508C92.082 67.8965 91.4395 69.3389 90.4004 70.207L91.6855 71.9297H90.3457L89.4844 70.7676C88.9443 71.0137 88.3496 71.1367 87.707 71.1367C85.1641 71.1367 83.332 69.1816 83.332 66.0508C83.332 62.9199 85.1641 60.9648 87.707 60.9648C90.2363 60.9648 92.082 62.9199 92.082 66.0508ZM97.8652 65.5039C97.7012 64.8887 97.2363 64.4785 96.3613 64.4785C95.4453 64.4785 94.7891 64.9707 94.7891 65.5996C94.7891 66.0918 95.1855 66.4336 96.0605 66.6387L97.168 66.9121C98.4941 67.2266 99.1504 67.8828 99.1504 68.9219C99.1504 70.207 98.0977 71.1504 96.2383 71.1504C94.5703 71.1504 93.5723 70.4121 93.3809 69.0586H94.6113C94.748 69.7832 95.2812 70.125 96.2109 70.125C97.2637 70.125 97.9336 69.6875 97.9336 68.9902C97.9336 68.4707 97.5645 68.1152 96.7168 67.9238L95.5957 67.6641C94.2969 67.3633 93.6133 66.6523 93.6133 65.668C93.6133 64.3965 94.7207 63.4805 96.3613 63.4805C97.8926 63.4805 98.8633 64.3008 99.0137 65.5039H97.8652Z" fill="#1C2024"/>
</svg>
