<svg width="168" height="92" viewBox="0 0 168 92" fill="none" xmlns="http://www.w3.org/2000/svg">
<path d="M6 0.5H162C165.038 0.5 167.5 2.96243 167.5 6V86C167.5 89.0376 165.038 91.5 162 91.5H6C2.96243 91.5 0.5 89.0376 0.5 86V6C0.5 2.96243 2.96243 0.5 6 0.5Z" stroke="#F9F9F9"/>
<path d="M74.4 44C74.4 41.4539 75.4115 39.0121 77.2118 37.2118C79.0121 35.4114 81.4539 34.4 84 34.4C86.5461 34.4 88.9879 35.4114 90.7883 37.2118C92.5886 39.0121 93.6 41.4539 93.6 44H91.2C91.2 42.0904 90.4415 40.2591 89.0912 38.9088C87.7409 37.5586 85.9096 36.8 84 36.8C82.0905 36.8 80.2591 37.5586 78.9089 38.9088C77.5586 40.2591 76.8 42.0904 76.8 44H74.4ZM84 33.2C80.022 33.2 76.8 29.978 76.8 26C76.8 22.022 80.022 18.8 84 18.8C87.978 18.8 91.2 22.022 91.2 26C91.2 29.978 87.978 33.2 84 33.2ZM84 30.8C86.652 30.8 88.8 28.652 88.8 26C88.8 23.348 86.652 21.2 84 21.2C81.348 21.2 79.2 23.348 79.2 26C79.2 28.652 81.348 30.8 84 30.8Z" fill="#29A383"/>
<path d="M62.3242 61.1016V71H61.0938V61.1016H62.3242ZM67.1641 71.1504C65.3184 71.1504 64.0059 69.6602 64.0059 67.3086C64.0059 64.957 65.3184 63.4805 67.1777 63.4805C68.6133 63.4805 69.0781 64.3555 69.3242 64.752H69.4062V61.1016H70.5957V71H69.4473V69.8652H69.3242C69.0645 70.2754 68.5859 71.1504 67.1641 71.1504ZM67.3281 70.0977C68.6816 70.0977 69.4473 68.9492 69.4473 67.2812C69.4473 65.6406 68.709 64.5332 67.3281 64.5332C65.9062 64.5332 65.1953 65.7363 65.1953 67.2812C65.1953 68.8672 65.9199 70.0977 67.3281 70.0977ZM75.75 71.1504C73.6035 71.1504 72.2773 69.6328 72.2773 67.3496C72.2773 65.0664 73.6172 63.4805 75.6406 63.4805C77.1992 63.4805 78.8398 64.4375 78.8398 67.1855V67.6777H73.4531C73.5078 69.25 74.4238 70.1113 75.75 70.1113C76.6387 70.1113 77.1992 69.7285 77.4727 69.2637H78.7305C78.375 70.3848 77.2812 71.1504 75.75 71.1504ZM73.4668 66.6797H77.6504C77.6504 65.4355 76.8574 64.5195 75.6406 64.5195C74.3555 64.5195 73.5352 65.5312 73.4668 66.6797ZM81.5469 66.543V71H80.3711V63.5762H81.5059V64.7383H81.6016C81.957 63.9863 82.6406 63.4805 83.7754 63.4805C85.2793 63.4805 86.2773 64.3965 86.2773 66.2832V71H85.1016V66.3652C85.1016 65.2168 84.4727 64.5332 83.4199 64.5332C82.3398 64.5332 81.5469 65.2578 81.5469 66.543ZM91.4043 63.5762V64.5605H89.8457V68.8672C89.8457 69.8242 90.3105 69.9746 90.8164 69.9746C91.0352 69.9746 91.3359 69.9609 91.5137 69.9473V71.041C91.3359 71.0684 91.0352 71.0957 90.6934 71.0957C89.709 71.0957 88.6562 70.4805 88.6562 69.168V64.5605H87.5352V63.5762H88.6562V61.7988H89.8457V63.5762H91.4043ZM92.9219 71V63.5762H94.0977V71H92.9219ZM93.5098 62.3457C93.0586 62.3457 92.6895 62.0039 92.6895 61.5664C92.6895 61.1289 93.0586 60.7871 93.5098 60.7871C93.9609 60.7871 94.3438 61.1289 94.3438 61.5664C94.3438 62.0039 93.9609 62.3457 93.5098 62.3457ZM99.2109 63.5762V64.5605H97.6523V68.8672C97.6523 69.8242 98.1172 69.9746 98.623 69.9746C98.8418 69.9746 99.1426 69.9609 99.3203 69.9473V71.041C99.1426 71.0684 98.8418 71.0957 98.5 71.0957C97.5156 71.0957 96.4629 70.4805 96.4629 69.168V64.5605H95.3418V63.5762H96.4629V61.7988H97.6523V63.5762H99.2109ZM101.48 73.7891C101.221 73.7891 100.975 73.7754 100.824 73.7617V72.709C100.947 72.7227 101.221 72.7363 101.398 72.7363C101.877 72.7363 102.273 72.6953 102.67 71.6152L102.889 71.0547L100.141 63.5762H101.426L103.449 69.4688H103.531L105.555 63.5762H106.84L103.695 72.0664C103.258 73.2285 102.533 73.7891 101.48 73.7891Z" fill="#1C2024"/>
</svg>
