<svg width="168" height="92" viewBox="0 0 168 92" fill="none" xmlns="http://www.w3.org/2000/svg">
<path d="M6 0.5H162C165.038 0.5 167.5 2.96243 167.5 6V86C167.5 89.0376 165.038 91.5 162 91.5H6C2.96243 91.5 0.5 89.0376 0.5 86V6C0.5 2.96243 2.96243 0.5 6 0.5Z" stroke="#F9F9F9"/>
<path d="M84 18.8L93.8604 20.9912C94.4088 21.1136 94.8 21.5996 94.8 22.1624V34.1468C94.8 36.554 93.5964 38.8028 91.5936 40.1372L84 45.2L76.4064 40.1372C74.4024 38.8016 73.2 36.554 73.2 34.148V22.1624C73.2 21.5996 73.5912 21.1136 74.1396 20.9912L84 18.8ZM84 21.2588L75.6 23.1248V34.1468C75.6 35.7512 76.4016 37.25 77.7372 38.1404L84 42.3164L90.2628 38.1404C91.5984 37.25 92.4 35.7524 92.4 34.148V23.1248L84 21.26V21.2588ZM89.3424 27.4664L91.0404 29.1632L83.4036 36.8L78.312 31.7084L80.0088 30.0116L83.4024 33.4052L89.3424 27.4652V27.4664Z" fill="#957468"/>
<path d="M49.0938 71V61.1016H52.457C54.7812 61.1016 55.834 62.3867 55.834 64.1504C55.834 65.4561 55.2461 66.4883 53.9883 66.9258L56.2168 71H54.7812L52.7168 67.1445L52.4707 67.1582H50.3242V71H49.0938ZM50.3242 66.0371H52.416C53.9883 66.0371 54.6172 65.3262 54.6172 64.1504C54.6172 62.9609 53.9883 62.1953 52.4023 62.1953H50.3242V66.0371ZM57.6113 71V61.1016H63.6133V62.1953H58.8418V65.5039H63.2988V66.584H58.8418V69.9062H63.6816V71H57.6113ZM72.3086 64.2188C72.0215 62.8516 70.8457 62.1133 69.5469 62.1133C67.7559 62.1133 66.3613 63.4941 66.3613 66.0508C66.3613 68.6074 67.7559 69.9883 69.5469 69.9883C70.8457 69.9883 72.0078 69.25 72.3086 67.8965H73.5391C73.1836 69.9199 71.5566 71.1367 69.5469 71.1367C67.0039 71.1367 65.1719 69.1816 65.1719 66.0508C65.1719 62.9199 67.0039 60.9648 69.5469 60.9648C71.543 60.9648 73.1699 62.168 73.5391 64.2188H72.3086ZM75.6855 71H74.4004L78.0234 61.1016H79.3223L82.9453 71H81.6465L80.6621 68.2109H76.6836L75.6855 71ZM77.0527 67.1309H80.2793L78.707 62.7012H78.625L77.0527 67.1309ZM84.2852 71V61.1016H87.6484C89.9727 61.1016 91.0254 62.4824 91.0254 64.2461C91.0254 65.9961 89.9727 67.4043 87.6621 67.4043H85.5156V71H84.2852ZM85.5156 66.3105H87.6074C89.1797 66.3105 89.8086 65.4219 89.8086 64.2461C89.8086 63.0566 89.1797 62.1953 87.5938 62.1953H85.5156V66.3105ZM92.2012 62.1953V61.1016H99.666V62.1953H96.5625V71H95.3184V62.1953H92.2012ZM101.307 71V61.1016H102.537V65.5039H107.773V61.1016H109.018V71H107.773V66.584H102.537V71H101.307ZM111.629 71H110.344L113.967 61.1016H115.266L118.889 71H117.59L116.605 68.2109H112.627L111.629 71ZM112.996 67.1309H116.223L114.65 62.7012H114.568L112.996 67.1309Z" fill="#1C2024"/>
</svg>
