<svg width="168" height="92" viewBox="0 0 168 92" fill="none" xmlns="http://www.w3.org/2000/svg">
<path d="M6 0.5H162C165.038 0.5 167.5 2.96243 167.5 6V86C167.5 89.0376 165.038 91.5 162 91.5H6C2.96243 91.5 0.5 89.0376 0.5 86V6C0.5 2.96243 2.96243 0.5 6 0.5Z" stroke="#F9F9F9"/>
<path d="M76 25V39H85V41H75C74.4477 41 74 40.5523 74 40V24C74 23.4477 74.4477 23 75 23H93C93.5523 23 94 23.4477 94 24V29H92V25H76ZM91.7071 31.2929L91 30.5858L90.2929 31.2929L87.2929 34.2929L88.7071 35.7071L91 33.4142L93.2929 35.7071L94.7071 34.2929L91.7071 31.2929ZM88.7071 37.2929L91 39.5858L93.2929 37.2929L94.7071 38.7071L91.7071 41.7071L91 42.4142L90.2929 41.7071L87.2929 38.7071L88.7071 37.2929Z" fill="#00A2C7"/>
<path d="M55.6699 71H52.5938V61.1016H55.793C58.6777 61.1016 60.3867 62.9609 60.3867 66.0371C60.3867 69.127 58.6777 71 55.6699 71ZM53.8242 69.9062H55.5879C58.0215 69.9062 59.1836 68.4434 59.1836 66.0371C59.1836 63.6445 58.0215 62.1953 55.7109 62.1953H53.8242V69.9062ZM62.041 71V63.5762H63.1758V64.7109H63.2578C63.5312 63.959 64.2969 63.4531 65.1719 63.4531C65.3496 63.4531 65.6504 63.4668 65.7871 63.4805V64.6699C65.7051 64.6426 65.377 64.5879 65.0762 64.5879C64.0098 64.5879 63.2168 65.3262 63.2168 66.3242V71H62.041ZM69.7246 71.1504C67.7012 71.1504 66.334 69.6328 66.334 67.3223C66.334 65.0117 67.7012 63.4805 69.7246 63.4805C71.7344 63.4805 73.0879 65.0117 73.0879 67.3223C73.0879 69.6328 71.7344 71.1504 69.7246 71.1504ZM69.7246 70.1113C71.2148 70.1113 71.9121 68.7988 71.9121 67.3223C71.9121 65.8457 71.2148 64.5195 69.7246 64.5195C68.207 64.5195 67.5098 65.8457 67.5098 67.3223C67.5098 68.7988 68.207 70.1113 69.7246 70.1113ZM74.6328 73.7891V63.5762H75.7676V64.752H75.9043C76.1504 64.3555 76.6152 63.4805 78.0508 63.4805C79.9102 63.4805 81.209 64.957 81.209 67.3086C81.209 69.6602 79.9102 71.1504 78.0645 71.1504C76.6426 71.1504 76.1504 70.2754 75.9043 69.8652H75.8086V73.7891H74.6328ZM75.7812 67.2812C75.7812 68.9492 76.5332 70.0977 77.9004 70.0977C79.3086 70.0977 80.0332 68.8672 80.0332 67.2812C80.0332 65.7363 79.3223 64.5332 77.9004 64.5332C76.5059 64.5332 75.7812 65.6406 75.7812 67.2812ZM85.543 71.1504C83.6973 71.1504 82.3848 69.6602 82.3848 67.3086C82.3848 64.957 83.6973 63.4805 85.5566 63.4805C86.9922 63.4805 87.457 64.3555 87.7031 64.752H87.7852V61.1016H88.9746V71H87.8262V69.8652H87.7031C87.4434 70.2754 86.9648 71.1504 85.543 71.1504ZM85.707 70.0977C87.0605 70.0977 87.8262 68.9492 87.8262 67.2812C87.8262 65.6406 87.0879 64.5332 85.707 64.5332C84.2852 64.5332 83.5742 65.7363 83.5742 67.2812C83.5742 68.8672 84.2988 70.0977 85.707 70.0977ZM94.0469 71.1504C92.0234 71.1504 90.6562 69.6328 90.6562 67.3223C90.6562 65.0117 92.0234 63.4805 94.0469 63.4805C96.0566 63.4805 97.4102 65.0117 97.4102 67.3223C97.4102 69.6328 96.0566 71.1504 94.0469 71.1504ZM94.0469 70.1113C95.5371 70.1113 96.2344 68.7988 96.2344 67.3223C96.2344 65.8457 95.5371 64.5195 94.0469 64.5195C92.5293 64.5195 91.832 65.8457 91.832 67.3223C91.832 68.7988 92.5293 70.1113 94.0469 70.1113ZM100.377 71L98.1211 63.5762H99.3652L100.951 69.2363H101.02L102.592 63.5762H103.85L105.395 69.209H105.477L107.062 63.5762H108.293L106.037 71H104.875L103.262 65.3398H103.152L101.553 71H100.377ZM110.768 66.543V71H109.592V63.5762H110.727V64.7383H110.822C111.178 63.9863 111.861 63.4805 112.996 63.4805C114.5 63.4805 115.498 64.3965 115.498 66.2832V71H114.322V66.3652C114.322 65.2168 113.693 64.5332 112.641 64.5332C111.561 64.5332 110.768 65.2578 110.768 66.543Z" fill="#1C2024"/>
</svg>
