<svg width="168" height="92" viewBox="0 0 168 92" fill="none" xmlns="http://www.w3.org/2000/svg">
<path d="M6 0.5H162C165.038 0.5 167.5 2.96243 167.5 6V86C167.5 89.0376 165.038 91.5 162 91.5H6C2.96243 91.5 0.5 89.0376 0.5 86V6C0.5 2.96243 2.96243 0.5 6 0.5Z" stroke="#F9F9F9"/>
<path d="M93.6 44H74.4C74.0817 44 73.7765 43.8736 73.5514 43.6485C73.3264 43.4235 73.2 43.1183 73.2 42.8V21.2C73.2 20.8817 73.3264 20.5765 73.5514 20.3515C73.7765 20.1264 74.0817 20 74.4 20H93.6C93.9182 20 94.2234 20.1264 94.4485 20.3515C94.6735 20.5765 94.8 20.8817 94.8 21.2V42.8C94.8 43.1183 94.6735 43.4235 94.4485 43.6485C94.2234 43.8736 93.9182 44 93.6 44ZM92.4 41.6V22.4H75.6V41.6H92.4ZM79.2 28.4H88.8V30.8H79.2V28.4ZM79.2 33.2H88.8V35.6H79.2V33.2Z" fill="#2F64EE"/>
<path d="M55.4941 63.5898C55.3848 62.6191 54.4961 62.0586 53.3066 62.0586C51.9941 62.0586 51.1328 62.7422 51.1328 63.6855C51.1328 64.7246 52.2949 65.1074 53.0469 65.2988L54.0312 65.5723C55.0977 65.8457 56.834 66.4609 56.834 68.3066C56.834 69.9199 55.5352 71.1777 53.2383 71.1777C51.1055 71.1777 49.7793 70.0703 49.6699 68.4297H50.9277C51.0371 69.5371 52.0625 70.0566 53.2383 70.0566C54.6055 70.0566 55.6309 69.3594 55.6309 68.2793C55.6309 67.3223 54.7148 66.9531 53.6758 66.6523L52.459 66.3242C50.9004 65.873 49.9434 65.0801 49.9434 63.7402C49.9434 62.0723 51.4336 60.9648 53.3477 60.9648C55.2617 60.9648 56.6426 62.0859 56.6973 63.5898H55.4941ZM59.623 66.543V71H58.4473V61.1016H59.623V64.7383H59.7188C60.0605 63.9727 60.7305 63.4805 61.9062 63.4805C63.4238 63.4805 64.4355 64.3828 64.4355 66.2832V71H63.2598V66.3652C63.2598 65.2031 62.6172 64.5332 61.5508 64.5332C60.4434 64.5332 59.623 65.2578 59.623 66.543ZM69.3574 71.1504C67.334 71.1504 65.9668 69.6328 65.9668 67.3223C65.9668 65.0117 67.334 63.4805 69.3574 63.4805C71.3672 63.4805 72.7207 65.0117 72.7207 67.3223C72.7207 69.6328 71.3672 71.1504 69.3574 71.1504ZM69.3574 70.1113C70.8477 70.1113 71.5449 68.7988 71.5449 67.3223C71.5449 65.8457 70.8477 64.5195 69.3574 64.5195C67.8398 64.5195 67.1426 65.8457 67.1426 67.3223C67.1426 68.7988 67.8398 70.1113 69.3574 70.1113ZM74.2656 71V63.5762H75.4004V64.7109H75.4824C75.7559 63.959 76.5215 63.4531 77.3965 63.4531C77.5742 63.4531 77.875 63.4668 78.0117 63.4805V64.6699C77.9297 64.6426 77.6016 64.5879 77.3008 64.5879C76.2344 64.5879 75.4414 65.3262 75.4414 66.3242V71H74.2656ZM82.8652 63.5762V64.5605H81.3066V68.8672C81.3066 69.8242 81.7715 69.9746 82.2773 69.9746C82.4961 69.9746 82.7969 69.9609 82.9746 69.9473V71.041C82.7969 71.0684 82.4961 71.0957 82.1543 71.0957C81.1699 71.0957 80.1172 70.4805 80.1172 69.168V64.5605H78.9961V63.5762H80.1172V61.7988H81.3066V63.5762H82.8652ZM89.2773 61.1016V71H88.0469V61.1016H89.2773ZM92.4902 66.543V71H91.3145V63.5762H92.4492V64.7383H92.5449C92.9004 63.9863 93.584 63.4805 94.7188 63.4805C96.2227 63.4805 97.2207 64.3965 97.2207 66.2832V71H96.0449V66.3652C96.0449 65.2168 95.416 64.5332 94.3633 64.5332C93.2832 64.5332 92.4902 65.2578 92.4902 66.543ZM99.1074 73.7891V63.5762H100.242V64.752H100.379C100.625 64.3555 101.09 63.4805 102.525 63.4805C104.385 63.4805 105.684 64.957 105.684 67.3086C105.684 69.6602 104.385 71.1504 102.539 71.1504C101.117 71.1504 100.625 70.2754 100.379 69.8652H100.283V73.7891H99.1074ZM100.256 67.2812C100.256 68.9492 101.008 70.0977 102.375 70.0977C103.783 70.0977 104.508 68.8672 104.508 67.2812C104.508 65.7363 103.797 64.5332 102.375 64.5332C100.98 64.5332 100.256 65.6406 100.256 67.2812ZM111.904 67.9512V63.5762H113.066V71H111.904V69.7422H111.822C111.467 70.4941 110.742 71.0957 109.621 71.0957C108.213 71.0957 107.215 70.1797 107.215 68.293V63.5762H108.391V68.2109C108.391 69.2773 109.061 69.9609 110.004 69.9609C110.838 69.9609 111.904 69.332 111.904 67.9512ZM118.193 63.5762V64.5605H116.635V68.8672C116.635 69.8242 117.1 69.9746 117.605 69.9746C117.824 69.9746 118.125 69.9609 118.303 69.9473V71.041C118.125 71.0684 117.824 71.0957 117.482 71.0957C116.498 71.0957 115.445 70.4805 115.445 69.168V64.5605H114.324V63.5762H115.445V61.7988H116.635V63.5762H118.193Z" fill="#1C2024"/>
</svg>
