<svg width="168" height="92" viewBox="0 0 168 92" fill="none" xmlns="http://www.w3.org/2000/svg">
<path d="M6 0.5H162C165.038 0.5 167.5 2.96243 167.5 6V86C167.5 89.0376 165.038 91.5 162 91.5H6C2.96243 91.5 0.5 89.0376 0.5 86V6C0.5 2.96243 2.96243 0.5 6 0.5Z" stroke="#F9F9F9"/>
<rect width="32" height="32" transform="translate(68 16)" fill="white" fill-opacity="0.01"/>
<path fill-rule="evenodd" clip-rule="evenodd" d="M72.2667 25.6C72.2667 25.0109 72.7443 24.5333 73.3334 24.5333H94.6667C95.2557 24.5333 95.7334 25.0109 95.7334 25.6C95.7334 26.1891 95.2557 26.6667 94.6667 26.6667H73.3334C72.7443 26.6667 72.2667 26.1891 72.2667 25.6ZM72.2667 32C72.2667 31.4109 72.7443 30.9333 73.3334 30.9333H84.0001C84.5892 30.9333 85.0667 31.4109 85.0667 32C85.0667 32.5891 84.5892 33.0667 84.0001 33.0667H73.3334C72.7443 33.0667 72.2667 32.5891 72.2667 32ZM72.2667 38.4C72.2667 37.811 72.7443 37.3333 73.3334 37.3333H90.4001C90.9891 37.3333 91.4667 37.811 91.4667 38.4C91.4667 38.989 90.9891 39.4667 90.4001 39.4667H73.3334C72.7443 39.4667 72.2667 38.989 72.2667 38.4Z" fill="#F76B15"/>
<path d="M51.5938 71V61.1016H52.8242V69.9062H57.418V71H51.5938ZM61.9434 71.1504C59.9199 71.1504 58.5527 69.6328 58.5527 67.3223C58.5527 65.0117 59.9199 63.4805 61.9434 63.4805C63.9531 63.4805 65.3066 65.0117 65.3066 67.3223C65.3066 69.6328 63.9531 71.1504 61.9434 71.1504ZM61.9434 70.1113C63.4336 70.1113 64.1309 68.7988 64.1309 67.3223C64.1309 65.8457 63.4336 64.5195 61.9434 64.5195C60.4258 64.5195 59.7285 65.8457 59.7285 67.3223C59.7285 68.7988 60.4258 70.1113 61.9434 70.1113ZM68.0273 66.543V71H66.8516V63.5762H67.9863V64.7383H68.082C68.4375 63.9863 69.1211 63.4805 70.2559 63.4805C71.7598 63.4805 72.7578 64.3965 72.7578 66.2832V71H71.582V66.3652C71.582 65.2168 70.9531 64.5332 69.9004 64.5332C68.8203 64.5332 68.0273 65.2578 68.0273 66.543ZM77.6523 73.9395C75.8613 73.9395 74.6445 73.1602 74.5078 71.7793H75.7383C75.9023 72.5312 76.5996 72.9141 77.6523 72.9141C78.9238 72.9141 79.7031 72.3672 79.7031 71.1367V69.6328H79.6074C79.3613 70.043 78.8828 70.8906 77.4473 70.8906C75.6426 70.8906 74.2891 69.5234 74.2891 67.1855C74.2891 64.9023 75.6016 63.4805 77.4609 63.4805C78.8965 63.4805 79.3613 64.3555 79.6348 64.752H79.7305V63.5762H80.8789V71.2051C80.8789 73.1191 79.457 73.9395 77.6523 73.9395ZM77.6113 69.8379C78.9648 69.8379 79.7305 68.8672 79.7305 67.2266C79.7305 65.6406 78.9922 64.5332 77.6113 64.5332C76.1895 64.5332 75.4785 65.7363 75.4785 67.2266C75.4785 68.7715 76.2031 69.8379 77.6113 69.8379ZM87.6465 61.1016V71H86.416V61.1016H87.6465ZM90.8594 66.543V71H89.6836V63.5762H90.8184V64.7383H90.9141C91.2695 63.9863 91.9531 63.4805 93.0879 63.4805C94.5918 63.4805 95.5898 64.3965 95.5898 66.2832V71H94.4141V66.3652C94.4141 65.2168 93.7852 64.5332 92.7324 64.5332C91.6523 64.5332 90.8594 65.2578 90.8594 66.543ZM97.4766 73.7891V63.5762H98.6113V64.752H98.748C98.9941 64.3555 99.459 63.4805 100.895 63.4805C102.754 63.4805 104.053 64.957 104.053 67.3086C104.053 69.6602 102.754 71.1504 100.908 71.1504C99.4863 71.1504 98.9941 70.2754 98.748 69.8652H98.6523V73.7891H97.4766ZM98.625 67.2812C98.625 68.9492 99.377 70.0977 100.744 70.0977C102.152 70.0977 102.877 68.8672 102.877 67.2812C102.877 65.7363 102.166 64.5332 100.744 64.5332C99.3496 64.5332 98.625 65.6406 98.625 67.2812ZM110.273 67.9512V63.5762H111.436V71H110.273V69.7422H110.191C109.836 70.4941 109.111 71.0957 107.99 71.0957C106.582 71.0957 105.584 70.1797 105.584 68.293V63.5762H106.76V68.2109C106.76 69.2773 107.43 69.9609 108.373 69.9609C109.207 69.9609 110.273 69.332 110.273 67.9512ZM116.562 63.5762V64.5605H115.004V68.8672C115.004 69.8242 115.469 69.9746 115.975 69.9746C116.193 69.9746 116.494 69.9609 116.672 69.9473V71.041C116.494 71.0684 116.193 71.0957 115.852 71.0957C114.867 71.0957 113.814 70.4805 113.814 69.168V64.5605H112.693V63.5762H113.814V61.7988H115.004V63.5762H116.562Z" fill="#1C2024"/>
</svg>
