<svg width="168" height="92" viewBox="0 0 168 92" fill="none" xmlns="http://www.w3.org/2000/svg">
<path d="M6 0.5H162C165.038 0.5 167.5 2.96243 167.5 6V86C167.5 89.0376 165.038 91.5 162 91.5H6C2.96243 91.5 0.5 89.0376 0.5 86V6C0.5 2.96243 2.96243 0.5 6 0.5Z" stroke="#F9F9F9"/>
<path d="M90 21.2H94.8C95.1183 21.2 95.4235 21.3264 95.6485 21.5515C95.8736 21.7765 96 22.0817 96 22.4V41.6C96 41.9183 95.8736 42.2235 95.6485 42.4485C95.4235 42.6736 95.1183 42.8 94.8 42.8H73.2C72.8817 42.8 72.5765 42.6736 72.3515 42.4485C72.1264 42.2235 72 41.9183 72 41.6V22.4C72 22.0817 72.1264 21.7765 72.3515 21.5515C72.5765 21.3264 72.8817 21.2 73.2 21.2H78V18.8H80.4V21.2H87.6V18.8H90V21.2ZM87.6 23.6H80.4V26H78V23.6H74.4V28.4H93.6V23.6H90V26H87.6V23.6ZM93.6 30.8H74.4V40.4H93.6V30.8Z" fill="#E54666"/>
<path d="M58.4941 63.5898C58.3848 62.6191 57.4961 62.0586 56.3066 62.0586C54.9941 62.0586 54.1328 62.7422 54.1328 63.6855C54.1328 64.7246 55.2949 65.1074 56.0469 65.2988L57.0312 65.5723C58.0977 65.8457 59.834 66.4609 59.834 68.3066C59.834 69.9199 58.5352 71.1777 56.2383 71.1777C54.1055 71.1777 52.7793 70.0703 52.6699 68.4297H53.9277C54.0371 69.5371 55.0625 70.0566 56.2383 70.0566C57.6055 70.0566 58.6309 69.3594 58.6309 68.2793C58.6309 67.3223 57.7148 66.9531 56.6758 66.6523L55.459 66.3242C53.9004 65.873 52.9434 65.0801 52.9434 63.7402C52.9434 62.0723 54.4336 60.9648 56.3477 60.9648C58.2617 60.9648 59.6426 62.0859 59.6973 63.5898H58.4941ZM64.4824 71.1504C62.377 71.1504 61.0918 69.5508 61.0918 67.3223C61.0918 65.0664 62.4316 63.4805 64.4551 63.4805C66.041 63.4805 67.2168 64.4102 67.4082 65.8184H66.2324C66.0684 65.1348 65.4668 64.5195 64.4824 64.5195C63.1562 64.5195 62.2676 65.6133 62.2676 67.2812C62.2676 69.0039 63.1289 70.0977 64.4824 70.0977C65.3574 70.0977 66.0273 69.6328 66.2324 68.8125H67.4082C67.2168 70.1387 66.1367 71.1504 64.4824 71.1504ZM70.0332 66.543V71H68.8574V61.1016H70.0332V64.7383H70.1289C70.4707 63.9727 71.1406 63.4805 72.3164 63.4805C73.834 63.4805 74.8457 64.3828 74.8457 66.2832V71H73.6699V66.3652C73.6699 65.2031 73.0273 64.5332 71.9609 64.5332C70.8535 64.5332 70.0332 65.2578 70.0332 66.543ZM79.8496 71.1504C77.7031 71.1504 76.377 69.6328 76.377 67.3496C76.377 65.0664 77.7168 63.4805 79.7402 63.4805C81.2988 63.4805 82.9395 64.4375 82.9395 67.1855V67.6777H77.5527C77.6074 69.25 78.5234 70.1113 79.8496 70.1113C80.7383 70.1113 81.2988 69.7285 81.5723 69.2637H82.8301C82.4746 70.3848 81.3809 71.1504 79.8496 71.1504ZM77.5664 66.6797H81.75C81.75 65.4355 80.957 64.5195 79.7402 64.5195C78.4551 64.5195 77.6348 65.5312 77.5664 66.6797ZM87.2734 71.1504C85.4277 71.1504 84.1152 69.6602 84.1152 67.3086C84.1152 64.957 85.4277 63.4805 87.2871 63.4805C88.7227 63.4805 89.1875 64.3555 89.4336 64.752H89.5156V61.1016H90.7051V71H89.5566V69.8652H89.4336C89.1738 70.2754 88.6953 71.1504 87.2734 71.1504ZM87.4375 70.0977C88.791 70.0977 89.5566 68.9492 89.5566 67.2812C89.5566 65.6406 88.8184 64.5332 87.4375 64.5332C86.0156 64.5332 85.3047 65.7363 85.3047 67.2812C85.3047 68.8672 86.0293 70.0977 87.4375 70.0977ZM97.4316 67.9512V63.5762H98.5938V71H97.4316V69.7422H97.3496C96.9941 70.4941 96.2695 71.0957 95.1484 71.0957C93.7402 71.0957 92.7422 70.1797 92.7422 68.293V63.5762H93.918V68.2109C93.918 69.2773 94.5879 69.9609 95.5312 69.9609C96.3652 69.9609 97.4316 69.332 97.4316 67.9512ZM101.656 61.1016V71H100.48V61.1016H101.656ZM106.646 71.1504C104.5 71.1504 103.174 69.6328 103.174 67.3496C103.174 65.0664 104.514 63.4805 106.537 63.4805C108.096 63.4805 109.736 64.4375 109.736 67.1855V67.6777H104.35C104.404 69.25 105.32 70.1113 106.646 70.1113C107.535 70.1113 108.096 69.7285 108.369 69.2637H109.627C109.271 70.3848 108.178 71.1504 106.646 71.1504ZM104.363 66.6797H108.547C108.547 65.4355 107.754 64.5195 106.537 64.5195C105.252 64.5195 104.432 65.5312 104.363 66.6797ZM111.268 71V63.5762H112.402V64.7109H112.484C112.758 63.959 113.523 63.4531 114.398 63.4531C114.576 63.4531 114.877 63.4668 115.014 63.4805V64.6699C114.932 64.6426 114.604 64.5879 114.303 64.5879C113.236 64.5879 112.443 65.3262 112.443 66.3242V71H111.268Z" fill="#1C2024"/>
</svg>
