<svg width="168" height="92" viewBox="0 0 168 92" fill="none" xmlns="http://www.w3.org/2000/svg">
<path d="M6 0.5H162C165.038 0.5 167.5 2.96243 167.5 6V86C167.5 89.0376 165.038 91.5 162 91.5H6C2.96243 91.5 0.5 89.0376 0.5 86V6C0.5 2.96243 2.96243 0.5 6 0.5Z" stroke="#F9F9F9"/>
<path d="M78 24.8V21.2C78 20.8817 78.1264 20.5765 78.3514 20.3515C78.5765 20.1264 78.8817 20 79.2 20H93.6C93.9182 20 94.2234 20.1264 94.4485 20.3515C94.6735 20.5765 94.8 20.8817 94.8 21.2V38C94.8 38.3183 94.6735 38.6235 94.4485 38.8485C94.2234 39.0736 93.9182 39.2 93.6 39.2H90V42.8C90 43.4624 89.46 44 88.7916 44H74.4084C74.2501 44.0009 74.0932 43.9706 73.9467 43.9108C73.8002 43.8509 73.667 43.7627 73.5547 43.6512C73.4425 43.5396 73.3533 43.407 73.2924 43.261C73.2315 43.1149 73.2001 42.9583 73.2 42.8L73.2036 26C73.2036 25.3376 73.7436 24.8 74.412 24.8H78ZM75.6036 27.2L75.6 41.6H87.6V27.2H75.6036ZM80.4 24.8H90V36.8H92.4V22.4H80.4V24.8Z" fill="#FFB300" fill-opacity="0.905882"/>
<path d="M42.3477 64.1914C41.9238 62.9199 40.9531 62.1133 39.5449 62.1133C37.7949 62.1133 36.4004 63.4941 36.4004 66.0508C36.4004 68.6074 37.7949 69.9883 39.627 69.9883C41.3018 69.9883 42.4434 68.8672 42.4707 67.1172H39.8867V66.0371H43.6738V67.1035C43.6738 69.5645 41.9785 71.1367 39.627 71.1367C36.9883 71.1367 35.2109 69.1816 35.2109 66.0508C35.2109 62.9199 37.002 60.9648 39.5449 60.9648C41.6367 60.9648 43.25 62.2773 43.6191 64.1914H42.3477ZM45.3691 71V63.5762H46.5039V64.7109H46.5859C46.8594 63.959 47.625 63.4531 48.5 63.4531C48.6777 63.4531 48.9785 63.4668 49.1152 63.4805V64.6699C49.0332 64.6426 48.7051 64.5879 48.4043 64.5879C47.3379 64.5879 46.5449 65.3262 46.5449 66.3242V71H45.3691ZM49.8945 68.8945C49.8945 67.1855 51.3984 66.8027 52.6836 66.707C53.1553 66.6729 54.3584 66.6113 54.6934 66.5977V65.9961C54.6934 65.0527 54.1328 64.5059 53.0117 64.5059C52.0684 64.5059 51.5078 64.9434 51.3438 65.5039H50.1133C50.2637 64.3145 51.4258 63.4805 53.0664 63.4805C54.0371 63.4805 55.8555 63.7676 55.8555 66.1055V71H54.6934V69.9883H54.6387C54.3926 70.4941 53.709 71.1777 52.4238 71.1777C51.0156 71.1777 49.8945 70.3438 49.8945 68.8945ZM51.0703 68.9492C51.0703 69.7285 51.7266 70.125 52.6289 70.125C53.9551 70.125 54.6934 69.2363 54.6934 68.3066V67.5547L52.8203 67.6914C51.7539 67.7598 51.0703 68.1426 51.0703 68.9492ZM57.7422 73.7891V63.5762H58.877V64.752H59.0137C59.2598 64.3555 59.7246 63.4805 61.1602 63.4805C63.0195 63.4805 64.3184 64.957 64.3184 67.3086C64.3184 69.6602 63.0195 71.1504 61.1738 71.1504C59.752 71.1504 59.2598 70.2754 59.0137 69.8652H58.918V73.7891H57.7422ZM58.8906 67.2812C58.8906 68.9492 59.6426 70.0977 61.0098 70.0977C62.418 70.0977 63.1426 68.8672 63.1426 67.2812C63.1426 65.7363 62.4316 64.5332 61.0098 64.5332C59.6152 64.5332 58.8906 65.6406 58.8906 67.2812ZM67.0254 66.543V71H65.8496V61.1016H67.0254V64.7383H67.1211C67.4629 63.9727 68.1328 63.4805 69.3086 63.4805C70.8262 63.4805 71.8379 64.3828 71.8379 66.2832V71H70.6621V66.3652C70.6621 65.2031 70.0195 64.5332 68.9531 64.5332C67.8457 64.5332 67.0254 65.2578 67.0254 66.543ZM73.7246 71V63.5762H74.9004V71H73.7246ZM74.3125 62.3457C73.8613 62.3457 73.4922 62.0039 73.4922 61.5664C73.4922 61.1289 73.8613 60.7871 74.3125 60.7871C74.7637 60.7871 75.1465 61.1289 75.1465 61.5664C75.1465 62.0039 74.7637 62.3457 74.3125 62.3457ZM79.8086 71.1504C77.7031 71.1504 76.418 69.5508 76.418 67.3223C76.418 65.0664 77.7578 63.4805 79.7812 63.4805C81.3672 63.4805 82.543 64.4102 82.7344 65.8184H81.5586C81.3945 65.1348 80.793 64.5195 79.8086 64.5195C78.4824 64.5195 77.5938 65.6133 77.5938 67.2812C77.5938 69.0039 78.4551 70.0977 79.8086 70.0977C80.6836 70.0977 81.3535 69.6328 81.5586 68.8125H82.7344C82.543 70.1387 81.4629 71.1504 79.8086 71.1504ZM90.7324 71.1504C88.709 71.1504 87.3418 69.6328 87.3418 67.3223C87.3418 65.0117 88.709 63.4805 90.7324 63.4805C92.7422 63.4805 94.0957 65.0117 94.0957 67.3223C94.0957 69.6328 92.7422 71.1504 90.7324 71.1504ZM90.7324 70.1113C92.2227 70.1113 92.9199 68.7988 92.9199 67.3223C92.9199 65.8457 92.2227 64.5195 90.7324 64.5195C89.2148 64.5195 88.5176 65.8457 88.5176 67.3223C88.5176 68.7988 89.2148 70.1113 90.7324 70.1113ZM95.6406 73.7891V63.5762H96.7754V64.752H96.9121C97.1582 64.3555 97.623 63.4805 99.0586 63.4805C100.918 63.4805 102.217 64.957 102.217 67.3086C102.217 69.6602 100.918 71.1504 99.0723 71.1504C97.6504 71.1504 97.1582 70.2754 96.9121 69.8652H96.8164V73.7891H95.6406ZM96.7891 67.2812C96.7891 68.9492 97.541 70.0977 98.9082 70.0977C100.316 70.0977 101.041 68.8672 101.041 67.2812C101.041 65.7363 100.33 64.5332 98.9082 64.5332C97.5137 64.5332 96.7891 65.6406 96.7891 67.2812ZM106.988 63.5762V64.5605H105.43V68.8672C105.43 69.8242 105.895 69.9746 106.4 69.9746C106.619 69.9746 106.92 69.9609 107.098 69.9473V71.041C106.92 71.0684 106.619 71.0957 106.277 71.0957C105.293 71.0957 104.24 70.4805 104.24 69.168V64.5605H103.119V63.5762H104.24V61.7988H105.43V63.5762H106.988ZM108.506 71V63.5762H109.682V71H108.506ZM109.094 62.3457C108.643 62.3457 108.273 62.0039 108.273 61.5664C108.273 61.1289 108.643 60.7871 109.094 60.7871C109.545 60.7871 109.928 61.1289 109.928 61.5664C109.928 62.0039 109.545 62.3457 109.094 62.3457ZM114.59 71.1504C112.566 71.1504 111.199 69.6328 111.199 67.3223C111.199 65.0117 112.566 63.4805 114.59 63.4805C116.6 63.4805 117.953 65.0117 117.953 67.3223C117.953 69.6328 116.6 71.1504 114.59 71.1504ZM114.59 70.1113C116.08 70.1113 116.777 68.7988 116.777 67.3223C116.777 65.8457 116.08 64.5195 114.59 64.5195C113.072 64.5195 112.375 65.8457 112.375 67.3223C112.375 68.7988 113.072 70.1113 114.59 70.1113ZM120.674 66.543V71H119.498V63.5762H120.633V64.7383H120.729C121.084 63.9863 121.768 63.4805 122.902 63.4805C124.406 63.4805 125.404 64.3965 125.404 66.2832V71H124.229V66.3652C124.229 65.2168 123.6 64.5332 122.547 64.5332C121.467 64.5332 120.674 65.2578 120.674 66.543ZM131.42 65.5039C131.256 64.8887 130.791 64.4785 129.916 64.4785C129 64.4785 128.344 64.9707 128.344 65.5996C128.344 66.0918 128.74 66.4336 129.615 66.6387L130.723 66.9121C132.049 67.2266 132.705 67.8828 132.705 68.9219C132.705 70.207 131.652 71.1504 129.793 71.1504C128.125 71.1504 127.127 70.4121 126.936 69.0586H128.166C128.303 69.7832 128.836 70.125 129.766 70.125C130.818 70.125 131.488 69.6875 131.488 68.9902C131.488 68.4707 131.119 68.1152 130.271 67.9238L129.15 67.6641C127.852 67.3633 127.168 66.6523 127.168 65.668C127.168 64.3965 128.275 63.4805 129.916 63.4805C131.447 63.4805 132.418 64.3008 132.568 65.5039H131.42Z" fill="#1C2024"/>
</svg>
