<svg width="168" height="92" viewBox="0 0 168 92" fill="none" xmlns="http://www.w3.org/2000/svg">
<path d="M6 0.5H162C165.038 0.5 167.5 2.96243 167.5 6V86C167.5 89.0376 165.038 91.5 162 91.5H6C2.96243 91.5 0.5 89.0376 0.5 86V6C0.5 2.96243 2.96243 0.5 6 0.5Z" stroke="#F9F9F9"/>
<path d="M73.2 40.4H94.8V42.8H73.2V40.4ZM85.2 24.5936V38H82.8V24.5936L75.5148 31.88L73.818 30.1832L84 20L94.182 30.182L92.4852 31.8788L85.2 24.596V24.5936Z" fill="#26997B"/>
<path d="M41.5938 71V61.1016H44.957C47.2812 61.1016 48.334 62.4824 48.334 64.2461C48.334 65.9961 47.2812 67.4043 44.9707 67.4043H42.8242V71H41.5938ZM42.8242 66.3105H44.916C46.4883 66.3105 47.1172 65.4219 47.1172 64.2461C47.1172 63.0566 46.4883 62.1953 44.9023 62.1953H42.8242V66.3105ZM53.1328 71H50.0566V61.1016H53.2559C56.1406 61.1016 57.8496 62.9609 57.8496 66.0371C57.8496 69.127 56.1406 71 53.1328 71ZM51.2871 69.9062H53.0508C55.4844 69.9062 56.6465 68.4434 56.6465 66.0371C56.6465 63.6445 55.4844 62.1953 53.1738 62.1953H51.2871V69.9062ZM59.6543 71V61.1016H65.6152V62.1953H60.8848V65.5039H65.1641V66.584H60.8848V71H59.6543ZM77.4414 61.1016H78.6719V67.6504C78.6719 69.6875 77.1543 71.1777 74.8164 71.1777C72.4785 71.1777 70.9609 69.6875 70.9609 67.6504V61.1016H72.1914V67.5547C72.1914 68.9902 73.1895 70.0293 74.8164 70.0293C76.457 70.0293 77.4414 68.9902 77.4414 67.5547V61.1016ZM80.709 73.7891V63.5762H81.8438V64.752H81.9805C82.2266 64.3555 82.6914 63.4805 84.127 63.4805C85.9863 63.4805 87.2852 64.957 87.2852 67.3086C87.2852 69.6602 85.9863 71.1504 84.1406 71.1504C82.7188 71.1504 82.2266 70.2754 81.9805 69.8652H81.8848V73.7891H80.709ZM81.8574 67.2812C81.8574 68.9492 82.6094 70.0977 83.9766 70.0977C85.3848 70.0977 86.1094 68.8672 86.1094 67.2812C86.1094 65.7363 85.3984 64.5332 83.9766 64.5332C82.582 64.5332 81.8574 65.6406 81.8574 67.2812ZM89.9922 61.1016V71H88.8164V61.1016H89.9922ZM94.9004 71.1504C92.877 71.1504 91.5098 69.6328 91.5098 67.3223C91.5098 65.0117 92.877 63.4805 94.9004 63.4805C96.9102 63.4805 98.2637 65.0117 98.2637 67.3223C98.2637 69.6328 96.9102 71.1504 94.9004 71.1504ZM94.9004 70.1113C96.3906 70.1113 97.0879 68.7988 97.0879 67.3223C97.0879 65.8457 96.3906 64.5195 94.9004 64.5195C93.3828 64.5195 92.6855 65.8457 92.6855 67.3223C92.6855 68.7988 93.3828 70.1113 94.9004 70.1113ZM99.4531 68.8945C99.4531 67.1855 100.957 66.8027 102.242 66.707C102.714 66.6729 103.917 66.6113 104.252 66.5977V65.9961C104.252 65.0527 103.691 64.5059 102.57 64.5059C101.627 64.5059 101.066 64.9434 100.902 65.5039H99.6719C99.8223 64.3145 100.984 63.4805 102.625 63.4805C103.596 63.4805 105.414 63.7676 105.414 66.1055V71H104.252V69.9883H104.197C103.951 70.4941 103.268 71.1777 101.982 71.1777C100.574 71.1777 99.4531 70.3438 99.4531 68.8945ZM100.629 68.9492C100.629 69.7285 101.285 70.125 102.188 70.125C103.514 70.125 104.252 69.2363 104.252 68.3066V67.5547L102.379 67.6914C101.312 67.7598 100.629 68.1426 100.629 68.9492ZM110.104 71.1504C108.258 71.1504 106.945 69.6602 106.945 67.3086C106.945 64.957 108.258 63.4805 110.117 63.4805C111.553 63.4805 112.018 64.3555 112.264 64.752H112.346V61.1016H113.535V71H112.387V69.8652H112.264C112.004 70.2754 111.525 71.1504 110.104 71.1504ZM110.268 70.0977C111.621 70.0977 112.387 68.9492 112.387 67.2812C112.387 65.6406 111.648 64.5332 110.268 64.5332C108.846 64.5332 108.135 65.7363 108.135 67.2812C108.135 68.8672 108.859 70.0977 110.268 70.0977ZM118.689 71.1504C116.543 71.1504 115.217 69.6328 115.217 67.3496C115.217 65.0664 116.557 63.4805 118.58 63.4805C120.139 63.4805 121.779 64.4375 121.779 67.1855V67.6777H116.393C116.447 69.25 117.363 70.1113 118.689 70.1113C119.578 70.1113 120.139 69.7285 120.412 69.2637H121.67C121.314 70.3848 120.221 71.1504 118.689 71.1504ZM116.406 66.6797H120.59C120.59 65.4355 119.797 64.5195 118.58 64.5195C117.295 64.5195 116.475 65.5312 116.406 66.6797ZM123.311 71V63.5762H124.445V64.7109H124.527C124.801 63.959 125.566 63.4531 126.441 63.4531C126.619 63.4531 126.92 63.4668 127.057 63.4805V64.6699C126.975 64.6426 126.646 64.5879 126.346 64.5879C125.279 64.5879 124.486 65.3262 124.486 66.3242V71H123.311Z" fill="#1C2024"/>
</svg>
