<svg width="168" height="92" viewBox="0 0 168 92" fill="none" xmlns="http://www.w3.org/2000/svg">
<path d="M6 0.5H162C165.038 0.5 167.5 2.96243 167.5 6V86C167.5 89.0376 165.038 91.5 162 91.5H6C2.96243 91.5 0.5 89.0376 0.5 86V6C0.5 2.96243 2.96243 0.5 6 0.5Z" stroke="#F9F9F9"/>
<path d="M87.6 22.4H75.6V41.6H92.4V27.2H87.6V22.4ZM73.2 21.1904C73.2 20.5328 73.7364 20 74.3988 20H88.8L94.8 26V42.7916C94.8011 42.9492 94.7711 43.1055 94.7118 43.2515C94.6525 43.3975 94.5651 43.5304 94.4544 43.6426C94.3438 43.7548 94.2121 43.8441 94.0669 43.9054C93.9218 43.9668 93.7659 43.9989 93.6084 44H74.3916C74.0764 43.9978 73.7748 43.8717 73.5518 43.649C73.3289 43.4263 73.2025 43.1247 73.2 42.8096V21.1904ZM82.8 30.8H85.2V38H82.8V30.8ZM82.8 26H85.2V28.4H82.8V26Z" fill="#DC3E42"/>
<path d="M55.6699 71H52.5938V61.1016H55.793C58.6777 61.1016 60.3867 62.9609 60.3867 66.0371C60.3867 69.127 58.6777 71 55.6699 71ZM53.8242 69.9062H55.5879C58.0215 69.9062 59.1836 68.4434 59.1836 66.0371C59.1836 63.6445 58.0215 62.1953 55.7109 62.1953H53.8242V69.9062ZM62.041 71V63.5762H63.2168V71H62.041ZM62.6289 62.3457C62.1777 62.3457 61.8086 62.0039 61.8086 61.5664C61.8086 61.1289 62.1777 60.7871 62.6289 60.7871C63.0801 60.7871 63.4629 61.1289 63.4629 61.5664C63.4629 62.0039 63.0801 62.3457 62.6289 62.3457ZM69.2188 65.5039C69.0547 64.8887 68.5898 64.4785 67.7148 64.4785C66.7988 64.4785 66.1426 64.9707 66.1426 65.5996C66.1426 66.0918 66.5391 66.4336 67.4141 66.6387L68.5215 66.9121C69.8477 67.2266 70.5039 67.8828 70.5039 68.9219C70.5039 70.207 69.4512 71.1504 67.5918 71.1504C65.9238 71.1504 64.9258 70.4121 64.7344 69.0586H65.9648C66.1016 69.7832 66.6348 70.125 67.5645 70.125C68.6172 70.125 69.2871 69.6875 69.2871 68.9902C69.2871 68.4707 68.918 68.1152 68.0703 67.9238L66.9492 67.6641C65.6504 67.3633 64.9668 66.6523 64.9668 65.668C64.9668 64.3965 66.0742 63.4805 67.7148 63.4805C69.2461 63.4805 70.2168 64.3008 70.3672 65.5039H69.2188ZM75.0703 71.1504C72.9648 71.1504 71.6797 69.5508 71.6797 67.3223C71.6797 65.0664 73.0195 63.4805 75.043 63.4805C76.6289 63.4805 77.8047 64.4102 77.9961 65.8184H76.8203C76.6562 65.1348 76.0547 64.5195 75.0703 64.5195C73.7441 64.5195 72.8555 65.6133 72.8555 67.2812C72.8555 69.0039 73.7168 70.0977 75.0703 70.0977C75.9453 70.0977 76.6152 69.6328 76.8203 68.8125H77.9961C77.8047 70.1387 76.7246 71.1504 75.0703 71.1504ZM80.6211 61.1016V71H79.4453V61.1016H80.6211ZM82.1387 68.8945C82.1387 67.1855 83.6426 66.8027 84.9277 66.707C85.3994 66.6729 86.6025 66.6113 86.9375 66.5977V65.9961C86.9375 65.0527 86.377 64.5059 85.2559 64.5059C84.3125 64.5059 83.752 64.9434 83.5879 65.5039H82.3574C82.5078 64.3145 83.6699 63.4805 85.3105 63.4805C86.2812 63.4805 88.0996 63.7676 88.0996 66.1055V71H86.9375V69.9883H86.8828C86.6367 70.4941 85.9531 71.1777 84.668 71.1777C83.2598 71.1777 82.1387 70.3438 82.1387 68.8945ZM83.3145 68.9492C83.3145 69.7285 83.9707 70.125 84.873 70.125C86.1992 70.125 86.9375 69.2363 86.9375 68.3066V67.5547L85.0645 67.6914C83.998 67.7598 83.3145 68.1426 83.3145 68.9492ZM89.9863 71V63.5762H91.1621V71H89.9863ZM90.5742 62.3457C90.123 62.3457 89.7539 62.0039 89.7539 61.5664C89.7539 61.1289 90.123 60.7871 90.5742 60.7871C91.0254 60.7871 91.4082 61.1289 91.4082 61.5664C91.4082 62.0039 91.0254 62.3457 90.5742 62.3457ZM93.0352 71V63.5762H94.1699V64.7383H94.2656C94.5801 63.9453 95.291 63.4805 96.2617 63.4805C97.2324 63.4805 97.8887 63.9453 98.2441 64.7383H98.3262C98.709 63.9727 99.4883 63.4805 100.555 63.4805C101.881 63.4805 102.824 64.2871 102.824 66.0371V71H101.648V66.0508C101.648 64.957 100.951 64.5332 100.145 64.5332C99.1055 64.5332 98.5176 65.2305 98.5176 66.1738V71H97.3281V65.9277C97.3281 65.0938 96.7266 64.5332 95.8789 64.5332C94.9902 64.5332 94.2109 65.2852 94.2109 66.3652V71H93.0352ZM107.828 71.1504C105.682 71.1504 104.355 69.6328 104.355 67.3496C104.355 65.0664 105.695 63.4805 107.719 63.4805C109.277 63.4805 110.918 64.4375 110.918 67.1855V67.6777H105.531C105.586 69.25 106.502 70.1113 107.828 70.1113C108.717 70.1113 109.277 69.7285 109.551 69.2637H110.809C110.453 70.3848 109.359 71.1504 107.828 71.1504ZM105.545 66.6797H109.729C109.729 65.4355 108.936 64.5195 107.719 64.5195C106.434 64.5195 105.613 65.5312 105.545 66.6797ZM112.449 71V63.5762H113.584V64.7109H113.666C113.939 63.959 114.705 63.4531 115.58 63.4531C115.758 63.4531 116.059 63.4668 116.195 63.4805V64.6699C116.113 64.6426 115.785 64.5879 115.484 64.5879C114.418 64.5879 113.625 65.3262 113.625 66.3242V71H112.449Z" fill="#1C2024"/>
</svg>
