<svg width="168" height="92" viewBox="0 0 168 92" fill="none" xmlns="http://www.w3.org/2000/svg">
<path d="M6 0.5H162C165.038 0.5 167.5 2.96243 167.5 6V86C167.5 89.0376 165.038 91.5 162 91.5H6C2.96243 91.5 0.5 89.0376 0.5 86V6C0.5 2.96243 2.96243 0.5 6 0.5Z" stroke="#F9F9F9"/>
<rect width="32" height="32" transform="translate(68 16)" fill="white" fill-opacity="0.01"/>
<path fill-rule="evenodd" clip-rule="evenodd" d="M74.4001 22.4H93.6001V41.6H74.4001V22.4ZM72.2667 22.4C72.2667 21.2218 73.2219 20.2667 74.4001 20.2667H93.6001C94.7783 20.2667 95.7334 21.2218 95.7334 22.4V41.6C95.7334 42.7782 94.7783 43.7333 93.6001 43.7333H74.4001C73.2218 43.7333 72.2667 42.7782 72.2667 41.6V22.4ZM90.0796 27.7569C90.4129 27.2712 90.2893 26.6072 89.8036 26.2739C89.3179 25.9405 88.6539 26.064 88.3206 26.5497L82.1664 35.5169L79.0877 31.8056C78.7116 31.3522 78.0391 31.2896 77.5857 31.6657C77.1323 32.0418 77.0696 32.7143 77.4458 33.1677L81.426 37.9657C81.6395 38.2231 81.9614 38.3654 82.2955 38.3503C82.6295 38.3349 82.9372 38.1641 83.1264 37.8882L90.0796 27.7569Z" fill="#5151CD"/>
<path d="M37.5938 61.1016H39.0703L42.4062 69.25H42.5293L45.8652 61.1016H47.3418V71H46.1797V63.5215H46.084L43.0078 71H41.9141L38.8379 63.5215H38.7559V71H37.5938V61.1016ZM54.0684 67.9512V63.5762H55.2305V71H54.0684V69.7422H53.9863C53.6309 70.4941 52.9062 71.0957 51.7852 71.0957C50.377 71.0957 49.3789 70.1797 49.3789 68.293V63.5762H50.5547V68.2109C50.5547 69.2773 51.2246 69.9609 52.168 69.9609C53.002 69.9609 54.0684 69.332 54.0684 67.9512ZM58.293 61.1016V71H57.1172V61.1016H58.293ZM63.4062 63.5762V64.5605H61.8477V68.8672C61.8477 69.8242 62.3125 69.9746 62.8184 69.9746C63.0371 69.9746 63.3379 69.9609 63.5156 69.9473V71.041C63.3379 71.0684 63.0371 71.0957 62.6953 71.0957C61.7109 71.0957 60.6582 70.4805 60.6582 69.168V64.5605H59.5371V63.5762H60.6582V61.7988H61.8477V63.5762H63.4062ZM64.9238 71V63.5762H66.0996V71H64.9238ZM65.5117 62.3457C65.0605 62.3457 64.6914 62.0039 64.6914 61.5664C64.6914 61.1289 65.0605 60.7871 65.5117 60.7871C65.9629 60.7871 66.3457 61.1289 66.3457 61.5664C66.3457 62.0039 65.9629 62.3457 65.5117 62.3457ZM67.9727 73.7891V63.5762H69.1074V64.752H69.2441C69.4902 64.3555 69.9551 63.4805 71.3906 63.4805C73.25 63.4805 74.5488 64.957 74.5488 67.3086C74.5488 69.6602 73.25 71.1504 71.4043 71.1504C69.9824 71.1504 69.4902 70.2754 69.2441 69.8652H69.1484V73.7891H67.9727ZM69.1211 67.2812C69.1211 68.9492 69.873 70.0977 71.2402 70.0977C72.6484 70.0977 73.373 68.8672 73.373 67.2812C73.373 65.7363 72.6621 64.5332 71.2402 64.5332C69.8457 64.5332 69.1211 65.6406 69.1211 67.2812ZM77.2559 61.1016V71H76.0801V61.1016H77.2559ZM82.2461 71.1504C80.0996 71.1504 78.7734 69.6328 78.7734 67.3496C78.7734 65.0664 80.1133 63.4805 82.1367 63.4805C83.6953 63.4805 85.3359 64.4375 85.3359 67.1855V67.6777H79.9492C80.0039 69.25 80.9199 70.1113 82.2461 70.1113C83.1348 70.1113 83.6953 69.7285 83.9688 69.2637H85.2266C84.8711 70.3848 83.7773 71.1504 82.2461 71.1504ZM79.9629 66.6797H84.1465C84.1465 65.4355 83.3535 64.5195 82.1367 64.5195C80.8516 64.5195 80.0312 65.5312 79.9629 66.6797ZM93.416 71.1504C91.3105 71.1504 90.0254 69.5508 90.0254 67.3223C90.0254 65.0664 91.3652 63.4805 93.3887 63.4805C94.9746 63.4805 96.1504 64.4102 96.3418 65.8184H95.166C95.002 65.1348 94.4004 64.5195 93.416 64.5195C92.0898 64.5195 91.2012 65.6133 91.2012 67.2812C91.2012 69.0039 92.0625 70.0977 93.416 70.0977C94.291 70.0977 94.9609 69.6328 95.166 68.8125H96.3418C96.1504 70.1387 95.0703 71.1504 93.416 71.1504ZM98.9668 66.543V71H97.791V61.1016H98.9668V64.7383H99.0625C99.4043 63.9727 100.074 63.4805 101.25 63.4805C102.768 63.4805 103.779 64.3828 103.779 66.2832V71H102.604V66.3652C102.604 65.2031 101.961 64.5332 100.895 64.5332C99.7871 64.5332 98.9668 65.2578 98.9668 66.543ZM108.701 71.1504C106.678 71.1504 105.311 69.6328 105.311 67.3223C105.311 65.0117 106.678 63.4805 108.701 63.4805C110.711 63.4805 112.064 65.0117 112.064 67.3223C112.064 69.6328 110.711 71.1504 108.701 71.1504ZM108.701 70.1113C110.191 70.1113 110.889 68.7988 110.889 67.3223C110.889 65.8457 110.191 64.5195 108.701 64.5195C107.184 64.5195 106.486 65.8457 106.486 67.3223C106.486 68.7988 107.184 70.1113 108.701 70.1113ZM113.609 71V63.5762H114.785V71H113.609ZM114.197 62.3457C113.746 62.3457 113.377 62.0039 113.377 61.5664C113.377 61.1289 113.746 60.7871 114.197 60.7871C114.648 60.7871 115.031 61.1289 115.031 61.5664C115.031 62.0039 114.648 62.3457 114.197 62.3457ZM119.693 71.1504C117.588 71.1504 116.303 69.5508 116.303 67.3223C116.303 65.0664 117.643 63.4805 119.666 63.4805C121.252 63.4805 122.428 64.4102 122.619 65.8184H121.443C121.279 65.1348 120.678 64.5195 119.693 64.5195C118.367 64.5195 117.479 65.6133 117.479 67.2812C117.479 69.0039 118.34 70.0977 119.693 70.0977C120.568 70.0977 121.238 69.6328 121.443 68.8125H122.619C122.428 70.1387 121.348 71.1504 119.693 71.1504ZM127.186 71.1504C125.039 71.1504 123.713 69.6328 123.713 67.3496C123.713 65.0664 125.053 63.4805 127.076 63.4805C128.635 63.4805 130.275 64.4375 130.275 67.1855V67.6777H124.889C124.943 69.25 125.859 70.1113 127.186 70.1113C128.074 70.1113 128.635 69.7285 128.908 69.2637H130.166C129.811 70.3848 128.717 71.1504 127.186 71.1504ZM124.902 66.6797H129.086C129.086 65.4355 128.293 64.5195 127.076 64.5195C125.791 64.5195 124.971 65.5312 124.902 66.6797Z" fill="#1C2024"/>
</svg>
