<svg width="168" height="92" viewBox="0 0 168 92" fill="none" xmlns="http://www.w3.org/2000/svg">
<path d="M6 0.5H162C165.038 0.5 167.5 2.96243 167.5 6V86C167.5 89.0376 165.038 91.5 162 91.5H6C2.96243 91.5 0.5 89.0376 0.5 86V6C0.5 2.96243 2.96243 0.5 6 0.5Z" stroke="#F9F9F9"/>
<path d="M90 30.8V22.4H92.4V42.8H90V33.2H78V42.8H75.6V22.4H78V30.8H90Z" fill="#DF3478"/>
<path d="M61.5938 71V61.1016H62.8242V65.5039H68.0605V61.1016H69.3047V71H68.0605V66.584H62.8242V71H61.5938ZM74.4453 71.1504C72.2988 71.1504 70.9727 69.6328 70.9727 67.3496C70.9727 65.0664 72.3125 63.4805 74.3359 63.4805C75.8945 63.4805 77.5352 64.4375 77.5352 67.1855V67.6777H72.1484C72.2031 69.25 73.1191 70.1113 74.4453 70.1113C75.334 70.1113 75.8945 69.7285 76.168 69.2637H77.4258C77.0703 70.3848 75.9766 71.1504 74.4453 71.1504ZM72.1621 66.6797H76.3457C76.3457 65.4355 75.5527 64.5195 74.3359 64.5195C73.0508 64.5195 72.2305 65.5312 72.1621 66.6797ZM78.7109 68.8945C78.7109 67.1855 80.2148 66.8027 81.5 66.707C81.9717 66.6729 83.1748 66.6113 83.5098 66.5977V65.9961C83.5098 65.0527 82.9492 64.5059 81.8281 64.5059C80.8848 64.5059 80.3242 64.9434 80.1602 65.5039H78.9297C79.0801 64.3145 80.2422 63.4805 81.8828 63.4805C82.8535 63.4805 84.6719 63.7676 84.6719 66.1055V71H83.5098V69.9883H83.4551C83.209 70.4941 82.5254 71.1777 81.2402 71.1777C79.832 71.1777 78.7109 70.3438 78.7109 68.8945ZM79.8867 68.9492C79.8867 69.7285 80.543 70.125 81.4453 70.125C82.7715 70.125 83.5098 69.2363 83.5098 68.3066V67.5547L81.6367 67.6914C80.5703 67.7598 79.8867 68.1426 79.8867 68.9492ZM89.3613 71.1504C87.5156 71.1504 86.2031 69.6602 86.2031 67.3086C86.2031 64.957 87.5156 63.4805 89.375 63.4805C90.8105 63.4805 91.2754 64.3555 91.5215 64.752H91.6035V61.1016H92.793V71H91.6445V69.8652H91.5215C91.2617 70.2754 90.7832 71.1504 89.3613 71.1504ZM89.5254 70.0977C90.8789 70.0977 91.6445 68.9492 91.6445 67.2812C91.6445 65.6406 90.9062 64.5332 89.5254 64.5332C88.1035 64.5332 87.3926 65.7363 87.3926 67.2812C87.3926 68.8672 88.1172 70.0977 89.5254 70.0977ZM97.9473 71.1504C95.8008 71.1504 94.4746 69.6328 94.4746 67.3496C94.4746 65.0664 95.8145 63.4805 97.8379 63.4805C99.3965 63.4805 101.037 64.4375 101.037 67.1855V67.6777H95.6504C95.7051 69.25 96.6211 70.1113 97.9473 70.1113C98.8359 70.1113 99.3965 69.7285 99.6699 69.2637H100.928C100.572 70.3848 99.4785 71.1504 97.9473 71.1504ZM95.6641 66.6797H99.8477C99.8477 65.4355 99.0547 64.5195 97.8379 64.5195C96.5527 64.5195 95.7324 65.5312 95.6641 66.6797ZM102.568 71V63.5762H103.703V64.7109H103.785C104.059 63.959 104.824 63.4531 105.699 63.4531C105.877 63.4531 106.178 63.4668 106.314 63.4805V64.6699C106.232 64.6426 105.904 64.5879 105.604 64.5879C104.537 64.5879 103.744 65.3262 103.744 66.3242V71H102.568Z" fill="#1C2024"/>
</svg>
