<svg width="168" height="92" viewBox="0 0 168 92" fill="none" xmlns="http://www.w3.org/2000/svg">
<path d="M6 0.5H162C165.038 0.5 167.5 2.96243 167.5 6V86C167.5 89.0376 165.038 91.5 162 91.5H6C2.96243 91.5 0.5 89.0376 0.5 86V6C0.5 2.96243 2.96243 0.5 6 0.5Z" stroke="#F9F9F9"/>
<path d="M85.2 24.8V42.8H82.8V24.8H75.6V22.4H92.4V24.8H85.2Z" fill="#CE2C31"/>
<path d="M71.0469 62.1953V61.1016H78.5117V62.1953H75.4082V71H74.1641V62.1953H71.0469ZM82.0391 71.1504C79.8926 71.1504 78.5664 69.6328 78.5664 67.3496C78.5664 65.0664 79.9062 63.4805 81.9297 63.4805C83.4883 63.4805 85.1289 64.4375 85.1289 67.1855V67.6777H79.7422C79.7969 69.25 80.7129 70.1113 82.0391 70.1113C82.9277 70.1113 83.4883 69.7285 83.7617 69.2637H85.0195C84.6641 70.3848 83.5703 71.1504 82.0391 71.1504ZM79.7559 66.6797H83.9395C83.9395 65.4355 83.1465 64.5195 81.9297 64.5195C80.6445 64.5195 79.8242 65.5312 79.7559 66.6797ZM87.3574 63.5762L89.1074 66.5977L90.8711 63.5762H92.2246L89.832 67.2812L92.2246 71H90.8848L89.1074 68.1289L87.3574 71H86.0039L88.3418 67.2812L86.0039 63.5762H87.3574ZM96.8867 63.5762V64.5605H95.3281V68.8672C95.3281 69.8242 95.793 69.9746 96.2988 69.9746C96.5176 69.9746 96.8184 69.9609 96.9961 69.9473V71.041C96.8184 71.0684 96.5176 71.0957 96.1758 71.0957C95.1914 71.0957 94.1387 70.4805 94.1387 69.168V64.5605H93.0176V63.5762H94.1387V61.7988H95.3281V63.5762H96.8867Z" fill="#1C2024"/>
</svg>
