<svg width="168" height="92" viewBox="0 0 168 92" fill="none" xmlns="http://www.w3.org/2000/svg">
<path d="M6 0.5H162C165.038 0.5 167.5 2.96243 167.5 6V86C167.5 89.0376 165.038 91.5 162 91.5H6C2.96243 91.5 0.5 89.0376 0.5 86V6C0.5 2.96243 2.96243 0.5 6 0.5Z" stroke="#F9F9F9"/>
<rect width="32" height="32" transform="translate(68 16)" fill="white" fill-opacity="0.01"/>
<path fill-rule="evenodd" clip-rule="evenodd" d="M83.9998 17.871C76.1967 17.871 69.8711 24.1967 69.8711 31.9997C69.8711 39.8027 76.1967 46.1284 83.9998 46.1284C91.8029 46.1284 98.1284 39.8027 98.1284 31.9997C98.1284 24.1967 91.8029 17.871 83.9998 17.871ZM71.8978 31.9997C71.8978 25.316 77.316 19.8977 83.9998 19.8977C90.6835 19.8977 96.1018 25.316 96.1018 31.9997C96.1018 38.6835 90.6835 44.1018 83.9998 44.1018C77.316 44.1018 71.8978 38.6835 71.8978 31.9997ZM89.6723 27.8138C90.0113 27.3321 89.8957 26.6667 89.414 26.3277C88.9321 25.9886 88.2668 26.1044 87.9277 26.5861L81.9088 35.1393L79.4279 32.6124C79.0151 32.192 78.3398 32.1858 77.9194 32.5986C77.4991 33.0113 77.4929 33.6866 77.9056 34.107L81.2834 37.5473C81.5052 37.7732 81.8158 37.8889 82.1313 37.863C82.4469 37.8374 82.7346 37.6727 82.9168 37.4138L89.6723 27.8138Z" fill="#3E9B4F"/>
<path d="M32.5938 71V61.1016H38.5547V62.1953H33.8242V65.5039H38.1035V66.584H33.8242V71H32.5938ZM42.7246 71.1504C40.7012 71.1504 39.334 69.6328 39.334 67.3223C39.334 65.0117 40.7012 63.4805 42.7246 63.4805C44.7344 63.4805 46.0879 65.0117 46.0879 67.3223C46.0879 69.6328 44.7344 71.1504 42.7246 71.1504ZM42.7246 70.1113C44.2148 70.1113 44.9121 68.7988 44.9121 67.3223C44.9121 65.8457 44.2148 64.5195 42.7246 64.5195C41.207 64.5195 40.5098 65.8457 40.5098 67.3223C40.5098 68.7988 41.207 70.1113 42.7246 70.1113ZM47.6328 71V63.5762H48.7676V64.7109H48.8496C49.123 63.959 49.8887 63.4531 50.7637 63.4531C50.9414 63.4531 51.2422 63.4668 51.3789 63.4805V64.6699C51.2969 64.6426 50.9688 64.5879 50.668 64.5879C49.6016 64.5879 48.8086 65.3262 48.8086 66.3242V71H47.6328ZM52.5273 71V63.5762H53.6621V64.7383H53.7578C54.0723 63.9453 54.7832 63.4805 55.7539 63.4805C56.7246 63.4805 57.3809 63.9453 57.7363 64.7383H57.8184C58.2012 63.9727 58.9805 63.4805 60.0469 63.4805C61.373 63.4805 62.3164 64.2871 62.3164 66.0371V71H61.1406V66.0508C61.1406 64.957 60.4434 64.5332 59.6367 64.5332C58.5977 64.5332 58.0098 65.2305 58.0098 66.1738V71H56.8203V65.9277C56.8203 65.0938 56.2188 64.5332 55.3711 64.5332C54.4824 64.5332 53.7031 65.2852 53.7031 66.3652V71H52.5273ZM74.6211 64.2188C74.334 62.8516 73.1582 62.1133 71.8594 62.1133C70.0684 62.1133 68.6738 63.4941 68.6738 66.0508C68.6738 68.6074 70.0684 69.9883 71.8594 69.9883C73.1582 69.9883 74.3203 69.25 74.6211 67.8965H75.8516C75.4961 69.9199 73.8691 71.1367 71.8594 71.1367C69.3164 71.1367 67.4844 69.1816 67.4844 66.0508C67.4844 62.9199 69.3164 60.9648 71.8594 60.9648C73.8555 60.9648 75.4824 62.168 75.8516 64.2188H74.6211ZM80.459 71.1504C78.4355 71.1504 77.0684 69.6328 77.0684 67.3223C77.0684 65.0117 78.4355 63.4805 80.459 63.4805C82.4688 63.4805 83.8223 65.0117 83.8223 67.3223C83.8223 69.6328 82.4688 71.1504 80.459 71.1504ZM80.459 70.1113C81.9492 70.1113 82.6465 68.7988 82.6465 67.3223C82.6465 65.8457 81.9492 64.5195 80.459 64.5195C78.9414 64.5195 78.2441 65.8457 78.2441 67.3223C78.2441 68.7988 78.9414 70.1113 80.459 70.1113ZM85.3672 71V63.5762H86.502V64.7383H86.5977C86.9121 63.9453 87.623 63.4805 88.5938 63.4805C89.5645 63.4805 90.2207 63.9453 90.5762 64.7383H90.6582C91.041 63.9727 91.8203 63.4805 92.8867 63.4805C94.2129 63.4805 95.1562 64.2871 95.1562 66.0371V71H93.9805V66.0508C93.9805 64.957 93.2832 64.5332 92.4766 64.5332C91.4375 64.5332 90.8496 65.2305 90.8496 66.1738V71H89.6602V65.9277C89.6602 65.0938 89.0586 64.5332 88.2109 64.5332C87.3223 64.5332 86.543 65.2852 86.543 66.3652V71H85.3672ZM97.043 73.7891V63.5762H98.1777V64.752H98.3145C98.5605 64.3555 99.0254 63.4805 100.461 63.4805C102.32 63.4805 103.619 64.957 103.619 67.3086C103.619 69.6602 102.32 71.1504 100.475 71.1504C99.0527 71.1504 98.5605 70.2754 98.3145 69.8652H98.2188V73.7891H97.043ZM98.1914 67.2812C98.1914 68.9492 98.9434 70.0977 100.311 70.0977C101.719 70.0977 102.443 68.8672 102.443 67.2812C102.443 65.7363 101.732 64.5332 100.311 64.5332C98.916 64.5332 98.1914 65.6406 98.1914 67.2812ZM106.326 61.1016V71H105.15V61.1016H106.326ZM111.316 71.1504C109.17 71.1504 107.844 69.6328 107.844 67.3496C107.844 65.0664 109.184 63.4805 111.207 63.4805C112.766 63.4805 114.406 64.4375 114.406 67.1855V67.6777H109.02C109.074 69.25 109.99 70.1113 111.316 70.1113C112.205 70.1113 112.766 69.7285 113.039 69.2637H114.297C113.941 70.3848 112.848 71.1504 111.316 71.1504ZM109.033 66.6797H113.217C113.217 65.4355 112.424 64.5195 111.207 64.5195C109.922 64.5195 109.102 65.5312 109.033 66.6797ZM119.178 63.5762V64.5605H117.619V68.8672C117.619 69.8242 118.084 69.9746 118.59 69.9746C118.809 69.9746 119.109 69.9609 119.287 69.9473V71.041C119.109 71.0684 118.809 71.0957 118.467 71.0957C117.482 71.0957 116.43 70.4805 116.43 69.168V64.5605H115.309V63.5762H116.43V61.7988H117.619V63.5762H119.178ZM123.73 71.1504C121.584 71.1504 120.258 69.6328 120.258 67.3496C120.258 65.0664 121.598 63.4805 123.621 63.4805C125.18 63.4805 126.82 64.4375 126.82 67.1855V67.6777H121.434C121.488 69.25 122.404 70.1113 123.73 70.1113C124.619 70.1113 125.18 69.7285 125.453 69.2637H126.711C126.355 70.3848 125.262 71.1504 123.73 71.1504ZM121.447 66.6797H125.631C125.631 65.4355 124.838 64.5195 123.621 64.5195C122.336 64.5195 121.516 65.5312 121.447 66.6797ZM131.154 71.1504C129.309 71.1504 127.996 69.6602 127.996 67.3086C127.996 64.957 129.309 63.4805 131.168 63.4805C132.604 63.4805 133.068 64.3555 133.314 64.752H133.396V61.1016H134.586V71H133.438V69.8652H133.314C133.055 70.2754 132.576 71.1504 131.154 71.1504ZM131.318 70.0977C132.672 70.0977 133.438 68.9492 133.438 67.2812C133.438 65.6406 132.699 64.5332 131.318 64.5332C129.896 64.5332 129.186 65.7363 129.186 67.2812C129.186 68.8672 129.91 70.0977 131.318 70.0977Z" fill="#1C2024"/>
</svg>
