<svg width="168" height="92" viewBox="0 0 168 92" fill="none" xmlns="http://www.w3.org/2000/svg">
<path d="M6 0.5H162C165.038 0.5 167.5 2.96243 167.5 6V86C167.5 89.0376 165.038 91.5 162 91.5H6C2.96243 91.5 0.5 89.0376 0.5 86V6C0.5 2.96243 2.96243 0.5 6 0.5Z" stroke="#F9F9F9"/>
<path d="M73.2 22.3916C73.2 21.734 73.734 21.2 74.3916 21.2H93.6084C94.266 21.2 94.8 21.734 94.8 22.3916V41.6084C94.7996 41.9243 94.674 42.2273 94.4506 42.4507C94.2272 42.674 93.9243 42.7997 93.6084 42.8H74.3916C74.0756 42.7997 73.7727 42.674 73.5493 42.4507C73.3259 42.2273 73.2003 41.9243 73.2 41.6084V22.3916ZM75.6 23.6V40.4H92.4V23.6H75.6ZM82.3464 27.698L88.2012 31.6004C88.267 31.6442 88.321 31.7036 88.3583 31.7733C88.3957 31.8431 88.4152 31.9209 88.4152 32C88.4152 32.0791 88.3957 32.157 88.3583 32.2267C88.321 32.2964 88.267 32.3558 88.2012 32.3996L82.3452 36.302C82.2729 36.3499 82.1891 36.3773 82.1026 36.3814C82.0161 36.3855 81.93 36.3661 81.8536 36.3252C81.7772 36.2844 81.7133 36.2236 81.6687 36.1494C81.624 36.0752 81.6003 35.9902 81.6 35.9036V28.0964C81.6001 28.0096 81.6238 27.9244 81.6685 27.85C81.7133 27.7756 81.7773 27.7147 81.8539 27.6738C81.9305 27.633 82.0168 27.6136 82.1035 27.6179C82.1902 27.6221 82.2741 27.6498 82.3464 27.698V27.698Z" fill="#6E56CF"/>
<path d="M67.0449 61.1016L69.957 69.4004H70.0664L72.9922 61.1016H74.291L70.668 71H69.3691L65.7461 61.1016H67.0449ZM75.4805 71V63.5762H76.6562V71H75.4805ZM76.0684 62.3457C75.6172 62.3457 75.248 62.0039 75.248 61.5664C75.248 61.1289 75.6172 60.7871 76.0684 60.7871C76.5195 60.7871 76.9023 61.1289 76.9023 61.5664C76.9023 62.0039 76.5195 62.3457 76.0684 62.3457ZM81.332 71.1504C79.4863 71.1504 78.1738 69.6602 78.1738 67.3086C78.1738 64.957 79.4863 63.4805 81.3457 63.4805C82.7812 63.4805 83.2461 64.3555 83.4922 64.752H83.5742V61.1016H84.7637V71H83.6152V69.8652H83.4922C83.2324 70.2754 82.7539 71.1504 81.332 71.1504ZM81.4961 70.0977C82.8496 70.0977 83.6152 68.9492 83.6152 67.2812C83.6152 65.6406 82.877 64.5332 81.4961 64.5332C80.0742 64.5332 79.3633 65.7363 79.3633 67.2812C79.3633 68.8672 80.0879 70.0977 81.4961 70.0977ZM89.918 71.1504C87.7715 71.1504 86.4453 69.6328 86.4453 67.3496C86.4453 65.0664 87.7852 63.4805 89.8086 63.4805C91.3672 63.4805 93.0078 64.4375 93.0078 67.1855V67.6777H87.6211C87.6758 69.25 88.5918 70.1113 89.918 70.1113C90.8066 70.1113 91.3672 69.7285 91.6406 69.2637H92.8984C92.543 70.3848 91.4492 71.1504 89.918 71.1504ZM87.6348 66.6797H91.8184C91.8184 65.4355 91.0254 64.5195 89.8086 64.5195C88.5234 64.5195 87.7031 65.5312 87.6348 66.6797ZM97.5742 71.1504C95.5508 71.1504 94.1836 69.6328 94.1836 67.3223C94.1836 65.0117 95.5508 63.4805 97.5742 63.4805C99.584 63.4805 100.938 65.0117 100.938 67.3223C100.938 69.6328 99.584 71.1504 97.5742 71.1504ZM97.5742 70.1113C99.0645 70.1113 99.7617 68.7988 99.7617 67.3223C99.7617 65.8457 99.0645 64.5195 97.5742 64.5195C96.0566 64.5195 95.3594 65.8457 95.3594 67.3223C95.3594 68.7988 96.0566 70.1113 97.5742 70.1113Z" fill="#1C2024"/>
</svg>
